<svg width="386.985779" height="339.239624" viewBox="0 0 386.986 339.24" fill="none" xmlns="http://www.w3.org/2000/svg" xmlns:xlink="http://www.w3.org/1999/xlink">
	<defs/>
	<path id="矢量 1" d="M290 273.126C306.569 273.126 320 259.694 320 243.126C320 226.557 306.569 213.126 290 213.126L30 213.126C13.4315 213.126 0 226.557 0 243.126C0 259.694 13.4315 273.126 30 273.126L290 273.126Z" fill-rule="evenodd" fill="#7445DF"/>
	<path id="矢量 1" d="M173.898 52.1252C165.613 37.7765 170.53 19.4288 184.878 11.1445C199.227 2.86021 217.575 7.77647 225.859 22.1252L382.962 294.235C391.246 308.583 386.33 326.931 371.981 335.215C357.632 343.5 339.284 338.583 331 324.235L173.898 52.1252Z" fill-rule="evenodd" fill="#AC89FF"/>
	<path id="矢量 1" d="M173.387 15.005C181.672 0.656235 200.019 -4.26003 214.368 4.02425C228.717 12.3085 233.633 30.6562 225.349 45.005L108.962 246.594C100.677 260.942 82.3296 265.859 67.9808 257.574C53.632 249.29 48.7157 230.942 57 216.594L173.387 15.005Z" fill-rule="evenodd" fill="#E6A0FF"/>
	<path id="矢量 1" d="M42 213.126L164 213.126L164 273.126L42 273.126L42 213.126Z" fill-rule="evenodd" fill="#7445DF"/>
</svg>
