<svg width="128" height="128" viewBox="0 0 50 50" fill="none" xmlns="http://www.w3.org/2000/svg">
    <g fill="#000000">
        <path xmlns="http://www.w3.org/2000/svg" d="M24.95 0a25 25 0 1 0 25 25 25 25 0 0 0-25-25zm0 46.91a22 22 0 1 1 22-22 22 22 0 0 1-22 21.99z"></path>
        <path xmlns="http://www.w3.org/2000/svg" d="M24.95 3.65a21.3 21.3 0 1 0 21.3 21.3 21.33 21.33 0 0 0-21.3-21.3z"></path>
    </g>
    <g transform="matrix(0.48, 0, 0, 0.5, 17.5, 11.5)" fill="#ffffff">
    <path d="M10.5 59.7 c-0.06 0 -0.06 -0.06 -0.12 -0.12 c-0.06 -0.12 -0.24 -0.18 -0.48 -0.18 c-0.42 0 -2.34 -0.96 -2.4 -1.2 c0 -0.12 -0.24 -0.3 -0.54 -0.48 c-1.2 -0.84 -2.34 -2.88 -2.34 -4.08 l0 -0.06 c0 -0.3 -0.06 -0.72 -0.18 -0.9 l-0.06 -0.48 l0.06 -0.42 l-0.12 -0.6 c-0.06 -0.24 -0.12 -0.6 -0.12 -0.84 l0.06 -0.72 l-0.06 -0.42 c-0.06 -0.24 -0.06 -0.78 -0.12 -1.14 c0 -0.3 -0.06 -0.66 -0.12 -0.72 l0 -0.24 l0.06 -0.18 c0 -0.06 -0.06 -0.12 -0.18 -0.24 c-0.06 -0.12 -0.12 -0.12 -0.12 -0.18 l0.12 -0.06 c0.12 0 0.18 -0.18 0.18 -0.36 s-0.06 -0.48 -0.18 -0.66 c-0.06 -0.06 -0.06 -0.18 -0.06 -0.24 c0 -0.12 0 -0.18 0.06 -0.24 l0.06 -0.36 l0 -0.18 c-0.06 -0.3 -0.12 -0.72 -0.12 -1.08 c0 -0.42 0.06 -0.78 0.12 -0.9 c0.06 -0.06 0.12 -0.24 0.12 -0.42 l-0.06 -0.48 c-0.12 -0.84 -0.18 -1.56 -0.18 -2.28 c0 -0.6 0.06 -1.14 0.12 -1.74 l0 -0.6 l0.12 -0.48 l0.18 -0.48 l-0.06 -0.6 l0 -0.24 l0.06 -0.42 l0.12 -0.24 l-0.12 -0.12 c-0.06 -0.06 -0.12 -0.24 -0.12 -0.6 l0.06 -1.14 l-0.06 -0.36 l-0.06 -0.12 l0.12 -0.18 c0.06 -0.06 0.06 -0.3 0.06 -0.48 l0 -0.66 l0.06 -0.78 l0.12 -0.48 l-0.06 -0.42 c0 -0.06 0.06 -0.12 0.12 -0.12 c0.12 0 0.12 0 0.12 -0.06 l-0.06 -0.3 c-0.12 -0.24 -0.18 -0.96 -0.18 -1.62 l0.06 -0.9 c0.12 -0.36 0.3 -2.52 0.3 -2.76 l0 -0.24 c0 -0.42 0.06 -0.78 0.18 -0.9 l0.06 -0.12 l-0.06 -0.18 c-0.06 0 -0.06 -0.06 -0.06 -0.12 l0.12 -0.24 c0.24 -0.18 0.42 -1.2 0.42 -1.92 c0 -0.36 -0.06 -0.6 -0.12 -0.78 l0.06 -0.3 l-0.06 -0.36 l-0.06 -0.12 l0.12 -0.3 c0.06 -0.12 0.12 -0.24 0.12 -0.36 l-0.12 -0.42 c0 -0.12 0.06 -0.24 0.12 -0.3 l0.18 -0.24 c0 -0.12 -0.12 -0.12 -0.3 -0.24 c-0.12 -0.06 -0.3 -0.12 -0.54 -0.12 l-0.42 0.06 c-0.12 0 -0.24 -0.06 -0.3 -0.18 s-0.24 -0.18 -0.36 -0.18 s-0.12 0 -0.12 0.06 l0.06 0.24 l0.12 0.18 c0 0.06 -0.06 0.06 -0.12 0.06 l-0.3 0 c-0.06 0 -0.12 0 -0.12 0.06 s-0.06 0.12 -0.24 0.12 l-0.12 0.06 l0.3 0.24 l-0.42 -0.06 c-0.06 0 -0.18 0 -0.18 0.06 l-0.06 0.06 c-0.12 0 -0.18 -0.06 -0.36 -0.18 s-0.24 -0.18 -0.3 -0.18 s-0.06 0.06 -0.06 0.12 c0 0.12 -0.12 0.24 -0.3 0.24 c-0.12 0 -0.3 0.18 -0.42 0.3 c-0.12 0.24 -0.3 0.3 -0.6 0.3 l-0.18 0 c-0.12 0 -0.24 0 -0.24 0.06 s-0.24 0.12 -0.48 0.18 c-0.3 0.06 -0.66 0.18 -0.78 0.24 l-0.18 0.06 c-0.06 0 -0.06 -0.06 -0.06 -0.18 l0 -0.06 c0 -0.06 -0.06 -0.12 -0.12 -0.12 l-0.42 0.06 c-0.3 0.12 -0.66 0.18 -0.78 0.18 c-0.06 0 -0.12 0 -0.12 0.06 l0.24 0.18 l-0.9 0 l0.3 0.12 c0 0.06 -0.18 0.12 -0.66 0.24 c-0.36 0.12 -0.54 0.12 -0.78 0.12 c-0.12 0 -0.24 0 -0.36 -0.06 c-0.18 -0.12 -0.42 -0.12 -0.6 -0.12 c-0.12 0 -0.24 0 -0.24 0.12 s0.18 0.18 0.3 0.24 l-0.3 0 c-0.24 0 -0.42 0 -0.42 0.06 l0.06 0.12 l-0.06 0.06 c-0.18 0 -0.3 -0.18 -0.36 -0.48 c0 -0.06 -0.06 -0.12 -0.18 -0.12 l-0.42 0.12 l-0.12 0.12 l0.12 0.18 l-0.06 0.06 l-0.18 -0.06 c-0.3 -0.12 -0.66 -0.12 -0.96 -0.12 c-0.24 0 -0.48 0 -0.48 0.06 l-0.12 0.06 c-0.24 0 -0.9 -0.3 -0.96 -0.48 c0 -0.06 -0.24 -0.24 -0.48 -0.36 c-0.24 -0.18 -0.42 -0.36 -0.42 -0.48 l0 -0.06 c0 -0.06 -0.12 -0.18 -0.24 -0.3 c-0.48 -0.42 -0.9 -1.14 -1.2 -2.1 c-0.12 -0.42 -0.18 -0.66 -0.18 -0.84 s0.06 -0.3 0.18 -0.42 c0.24 -0.3 0.42 -0.36 1.74 -0.54 l1.56 -0.18 c0 -0.06 0.48 -0.12 1.02 -0.12 c0.54 -0.06 0.9 -0.12 0.9 -0.18 s0.24 -0.12 0.54 -0.18 l0.24 0 c0.12 0 0.24 0 0.24 0.06 s0.06 0.12 0.12 0.12 c0.12 0 0.12 -0.06 0.12 -0.18 c0 -0.06 0.18 -0.06 0.36 -0.06 l0.24 0 l-0.36 -0.18 l0.36 -0.12 l0.72 -0.18 l0.12 0 c0.12 0 0.12 0.06 0.18 0.18 l0.12 0.18 l0.12 -0.18 c0.06 -0.12 0.12 -0.18 0.18 -0.18 l0.12 0 l0.12 -0.06 c0.06 -0.18 0.72 -0.3 1.14 -0.3 c0.18 0 0.3 0 0.36 0.06 l0.18 0.12 c0.12 0 0.24 -0.06 0.42 -0.3 c0.18 -0.18 0.36 -0.3 0.48 -0.3 s0.18 0.06 0.18 0.12 l0.06 0.12 l0.12 -0.06 l0.06 -0.12 l-0.12 -0.18 c0 -0.06 0.06 -0.06 0.18 -0.06 s0.18 0.06 0.18 0.18 l0 0.06 l0.24 0.06 c0.18 0 0.24 -0.12 0.24 -0.24 l0 -0.12 c0 -0.06 0 -0.12 0.06 -0.12 s0.12 0.12 0.12 0.24 s0.06 0.18 0.12 0.18 l0.06 0 c0.12 0 0.24 -0.12 0.24 -0.3 c0 -0.12 0.06 -0.24 0.12 -0.24 s0.18 0.06 0.18 0.24 l0 0.12 l0.12 -0.18 c0.12 -0.18 0.42 -0.36 0.66 -0.42 l0.24 0 c0.12 0 0.24 0 0.24 0.06 s-0.06 0.12 -0.24 0.18 l-0.06 0 s0.12 0.06 0.3 0.06 c0.3 0 0.42 -0.06 0.42 -0.18 l0 -0.12 c0 -0.12 0.12 -0.18 0.48 -0.18 l0.24 0 c0.12 0 0.18 -0.06 0.18 -0.12 l0 -0.06 l0.06 -0.12 l0.12 0.12 l0.24 0.06 c0.06 0 0.12 0 0.12 -0.06 l0.18 -0.12 l0.48 0.24 l-0.12 -0.18 l0.12 -0.18 c0.12 -0.12 0.3 -0.24 0.42 -0.24 c0.06 0 0.12 0.06 0.12 0.12 l0 0.06 c0 0.06 0.12 0.12 0.3 0.12 c0.3 0 0.36 -0.12 0.36 -0.66 s0 -0.72 0.18 -0.72 c0.12 0 0.24 0.06 0.48 0.18 c0.42 0.24 1.14 0.48 1.44 0.48 c0.06 0 0.12 0 0.12 -0.06 s0.3 -0.12 0.6 -0.12 s0.6 -0.06 0.66 -0.18 l0.12 -0.06 l0 0.24 l0.12 -0.06 c0.06 -0.06 0.12 -0.06 0.12 -0.18 l-0.06 -0.12 l0.24 0.06 l0.36 0.06 c0.48 0 1.2 -0.18 1.2 -0.36 l-0.06 -0.12 l0.3 0 c0.12 0 0.12 0 0.12 -0.06 s0.06 -0.06 0.06 -0.06 l0.06 0 c0.18 0.06 0.36 0.12 0.6 0.12 c0.3 0 0.6 -0.06 0.66 -0.18 s0.12 -0.12 0.18 -0.12 s0.12 0 0.18 0.06 c0.12 0.06 0.42 0.12 0.6 0.12 s0.3 0 0.3 -0.06 l0 -0.12 c0 -0.12 0.06 -0.12 0.12 -0.18 l0.12 -0.06 l0.36 0.18 c0.06 0 0.06 0 0.06 -0.06 s0.3 -0.18 0.6 -0.18 c0.36 0 0.66 -0.06 0.72 -0.12 l0.54 -0.18 c0.18 0 0.48 -0.06 0.66 -0.12 c0.24 -0.12 0.72 -0.12 1.08 -0.12 c0.3 0 0.54 0 0.66 0.06 c0.12 0 0.3 -0.06 0.48 -0.18 c0.12 -0.12 0.36 -0.18 0.54 -0.18 l0.3 0.06 c0.36 0 0.84 -0.12 0.84 -0.3 l-0.06 -0.24 l0.24 0.18 c0.12 0.12 0.24 0.18 0.3 0.18 l0.12 -0.12 l0.06 -0.12 c0 -0.06 0 -0.06 -0.12 -0.06 l-0.12 0 l0.06 -0.12 l0.18 -0.12 l0.36 0.18 c0.06 0 0.06 0 0.06 -0.12 l0 -0.06 l0.06 0 l0.48 -0.06 l0.3 -0.06 c0.12 0 0.18 0 0.3 0.12 l0.18 0.18 l-0.18 -0.3 c0 -0.06 0.12 -0.12 0.42 -0.12 l0.9 0.06 c0.9 0 1.32 -0.06 1.32 -0.12 s0.06 -0.12 0.18 -0.12 l0.36 0 c0.12 0 0.18 0 0.18 -0.06 c0.06 -0.06 0.9 -0.12 1.92 -0.18 c0.96 0 1.8 -0.06 1.86 -0.18 c0 -0.06 0.12 -0.12 0.24 -0.12 s0.18 0.06 0.18 0.18 c0 0.06 0.24 0.12 0.48 0.12 c0.54 0 1.2 -0.12 1.62 -0.24 c0.18 -0.06 0.36 -0.06 0.54 -0.06 c0.24 0 0.48 0 0.84 0.12 c0.78 0.18 1.14 0.24 1.32 0.24 l0.06 0 l-0.12 -0.18 l0.12 0 c0.12 0 0.42 0.06 0.78 0.24 l0.48 0.18 c0.06 0 0.06 -0.06 0.06 -0.12 c0.06 -0.18 0.18 -0.24 0.36 -0.24 c0.24 0 0.48 0.06 0.66 0.24 c0.12 0.12 0.36 0.18 0.48 0.18 l0.12 0 c0.3 0 1.32 0.66 1.44 1.02 c0 0.06 0 0.12 -0.06 0.12 l-0.18 0 l0 0.06 c0 0.06 0.24 0.18 0.48 0.3 c0.18 0.06 0.3 0.12 0.3 0.18 l-0.48 0.12 c-0.66 0.12 -0.9 0.24 -0.9 0.42 l0.12 0.42 l-0.06 0.12 l0.06 0 c0.06 0 0.24 0.06 0.3 0.18 l0.24 0.12 l0.12 -0.06 c0.06 0 0 0.06 -0.06 0.12 c-0.06 0.12 -0.06 0.12 -0.12 0.12 l-0.12 -0.06 c-0.12 -0.12 -0.42 -0.18 -0.72 -0.18 c-0.3 -0.06 -0.6 -0.12 -0.6 -0.24 c-0.06 -0.06 -0.12 -0.18 -0.18 -0.18 l-0.12 0.06 l0.06 0.12 c0 0.12 -0.06 0.24 -0.24 0.3 l-0.12 0.06 c0 0.06 0.18 0.06 0.6 0.06 l0.36 0 c0.36 0 0.66 0.06 0.78 0.12 c0.18 0.06 0.48 0.12 0.72 0.12 c0.18 0 0.36 0.12 0.36 0.18 s-0.54 0.18 -1.44 0.18 c-0.72 0 -1.14 0.06 -1.14 0.12 l0.18 0.06 c0 0.06 -0.12 0.12 -0.3 0.18 l-0.3 0.06 c-0.12 0 -0.24 -0.06 -0.3 -0.12 c-0.12 -0.12 -0.36 -0.18 -0.54 -0.18 s-0.3 0.06 -0.3 0.12 s0 0.06 -0.06 0.06 l-0.06 -0.06 c-0.12 -0.12 -0.24 -0.18 -0.3 -0.18 l-0.06 0.06 l0.12 0.18 c0 0.06 -0.24 0.06 -1.08 0.12 l-0.42 0 c-0.3 0 -0.54 -0.06 -0.66 -0.12 c-0.24 -0.12 -0.6 -0.18 -1.02 -0.18 c-0.36 0 -0.66 -0.06 -0.66 -0.12 l-0.06 -0.12 l-0.06 0.12 c-0.06 0.12 -0.12 0.18 -0.18 0.18 c-0.24 0 -0.42 0.06 -0.42 0.06 c0 0.06 0.12 0.12 0.36 0.12 c0.48 0.06 0.72 0.3 0.72 0.48 c0 0.12 -0.06 0.24 -0.24 0.36 l-0.42 0.18 c-0.12 0 -0.18 -0.12 -0.24 -0.24 l0 -0.06 c0 -0.12 0.18 -0.24 0.6 -0.24 c0.12 0 0.18 0 0.18 -0.12 c0 -0.06 -0.18 -0.12 -0.3 -0.12 c-0.18 0 -0.42 0.06 -0.48 0.18 c0 0.06 -0.06 0.06 -0.12 0.06 l-0.24 -0.06 c-0.18 -0.06 -0.48 -0.12 -0.78 -0.12 c-0.54 0 -1.02 0.12 -1.08 0.3 c-0.06 0.06 -0.06 0.12 -0.12 0.12 c0 -0.06 -0.24 -0.12 -0.42 -0.12 s-0.42 0.06 -0.48 0.18 l-0.06 0.18 c0 0.12 0.12 0.18 0.3 0.18 l0.12 0 c0.06 0 0.06 0 0.06 0.06 c-0.06 0.06 -0.54 0.12 -1.14 0.18 l-0.66 0.06 c-0.36 0 -0.42 -0.06 -0.42 -0.24 c0 -0.12 0.06 -0.24 0.18 -0.24 c0.18 0 0.24 0 0.24 -0.06 c-0.06 -0.12 -0.66 -0.18 -1.14 -0.18 c-0.3 0 -0.48 0 -0.54 0.06 s-0.24 0.18 -0.42 0.24 l-0.12 0.06 l0.66 0 c0.18 0 0.24 0 0.24 0.06 l-0.18 0.3 c0 0.06 0.06 0.06 0.12 0.12 l-1.08 0.12 c-0.78 0.06 -1.32 0.12 -1.32 0.24 c0 0.06 -0.06 0.06 -0.12 0.06 l-0.24 -0.06 l-0.18 -0.12 c-0.06 0 -0.06 0 -0.06 0.06 l0 0.06 c0 0.06 0 0.06 -0.06 0.06 l-0.12 0 l-0.06 0.06 c0 0.06 0.12 0.18 0.24 0.18 l0.06 0.06 c0 0.06 0 0.06 -0.12 0.06 s-0.24 -0.12 -0.3 -0.24 s-0.18 -0.18 -0.3 -0.18 s-0.18 0.06 -0.18 0.12 s-0.18 0.12 -0.42 0.12 c-0.3 0 -0.36 0.06 -0.36 0.12 l0 0.24 c0 0.12 0 0.18 -0.06 0.18 s-0.12 -0.06 -0.18 -0.18 l-0.24 -0.06 l-1.08 0.12 c-0.12 0 -0.18 0 -0.18 -0.06 l0.12 -0.12 l-0.06 -0.18 c0 -0.06 0.06 -0.12 0.12 -0.18 l0.24 -0.12 l0 -0.06 c0 -0.06 -0.18 -0.12 -0.36 -0.12 c-0.24 0 -0.48 0.06 -0.66 0.18 c-0.12 0.06 -0.48 0.12 -0.78 0.18 c-0.3 0 -0.66 0.12 -0.78 0.24 l-0.06 0.12 c0 0.06 0 0.06 0.12 0.06 l0.72 -0.06 c0.42 0 0.54 0.06 0.54 0.18 l0 0.06 c0 0.12 0.06 0.18 0.18 0.18 l0.48 -0.06 l0.06 0.06 l0 0.06 l-0.24 0.06 c-0.54 0 -1.62 -0.18 -1.92 -0.36 l-0.78 -0.18 c-0.36 0 -0.78 -0.06 -0.96 -0.12 c-0.18 0 -0.24 0 -0.24 0.06 l0.06 0.18 c0.12 0.18 0.18 0.24 0.3 0.24 l0.3 -0.06 c0.12 0 0.24 0.12 0.24 0.24 l-0.06 0.18 c0 0.06 0 0.06 -0.06 0.06 l-0.06 -0.06 c0 -0.12 -0.12 -0.18 -0.18 -0.18 l-0.06 0.06 l0.12 0.3 c0 0.06 -0.12 0.06 -0.3 0.12 l-0.3 0 l0.3 0.18 l-0.6 0 c-0.54 0 -0.9 -0.12 -1.14 -0.3 l-0.24 -0.18 c-0.06 0 -0.12 0.06 -0.12 0.12 c-0.06 0.12 -0.24 0.24 -0.48 0.3 l-0.24 0.06 c-0.06 0 -0.06 0 -0.06 -0.06 l0.06 -0.18 c0 -0.06 -0.06 -0.12 -0.3 -0.18 l-0.18 0 c-0.06 0 -0.12 0 -0.12 0.06 l0 0.06 c0 0.12 0.12 0.18 0.18 0.18 s0.12 0.06 0.12 0.18 l0 0.06 s0.06 0.06 0.18 0.06 s0.24 0.06 0.24 0.12 l0 0.06 c0 0.06 -0.06 0.12 -0.12 0.12 l-0.06 0.06 l0.12 0.42 c0 0.06 0 0.12 -0.12 0.12 l-0.12 0.06 l0.18 0.3 l-0.18 0 c-0.06 0 -0.12 0 -0.12 0.06 s0.18 0.18 0.36 0.18 c0.18 0.06 0.3 0.18 0.3 0.24 s-0.06 0.12 -0.18 0.12 l-0.3 0.06 c0 0.06 0.06 0.06 0.24 0.12 c0.3 0.06 0.48 0.24 0.48 0.3 s-0.06 0.12 -0.18 0.12 l-0.3 0 c-0.12 0 -0.36 0.06 -0.42 0.12 s-0.12 0.06 -0.3 0.06 l-0.66 -0.06 l-0.78 -0.18 l-0.06 0.06 l-0.06 1.02 l-0.12 0.96 c0 0.6 -0.66 7.2 -0.84 8.34 l-0.3 4.5 l0 0.3 c0 0.24 0 0.9 -0.06 1.44 l-0.06 1.92 c0 0.78 -0.12 1.02 -0.6 1.2 l-0.12 0.06 c0 0.06 0.06 0.06 0.24 0.06 c0.24 0 0.42 0.06 0.42 0.12 l0 0.78 c0 1.02 0 2.76 -0.06 3.12 c-0.06 0.24 -0.06 0.6 -0.06 0.84 l0.06 1.8 l-0.06 3.36 l0.06 1.38 c0 0.24 0 0.6 0.06 0.78 c0 0.12 0 0.96 0.06 1.74 c0 1.8 0.12 3.6 0.24 4.26 l0.06 0.78 c0 0.18 0.06 0.42 0.12 0.54 c0 0.18 -0.06 0.24 -0.18 0.24 l-0.12 0 c-0.06 0 -0.12 0.06 -0.12 0.12 c0 0.12 0.06 0.24 0.24 0.24 c0.12 0.06 0.24 0.3 0.36 0.66 c0.12 0.3 0.3 0.72 0.42 0.84 c0.18 0.18 0.24 0.24 0.24 0.42 l-0.06 0.3 l-0.06 0.6 l0.12 -0.06 l0.18 0.06 l0.06 0.12 l-0.12 0.06 c-0.12 0 -0.3 0.06 -0.36 0.24 z M34.26 5.700000000000003 l0.12 -0.06 l-0.18 -0.18 l-0.12 0 l0 0.12 c0 0.06 0.12 0.12 0.18 0.12 z M34.26 7.140000000000001 l0.06 -0.06 l-0.12 -0.06 c-0.06 0 -0.06 0 -0.06 0.06 l0 0.06 l0.12 0 z M13.56 8.579999999999998 c0.06 0 0.12 0 0.12 -0.06 l-0.18 -0.12 l-0.12 -0.06 l0 0.12 c0 0.06 0.12 0.12 0.18 0.12 z M33.3 7.920000000000002 l0.12 -0.06 l-0.06 -0.06 l-0.18 0 l0 0.06 z M36.6 7.920000000000002 l0 -0.06 l-0.06 -0.18 l-0.06 0 l0 0.12 l0.06 0.12 l0.06 0 z M34.2 8.04 l0.12 -0.06 l-0.06 -0.06 l-0.18 0 l0 0.06 z M37.62 8.04 l0.06 -0.12 l-0.12 -0.12 c-0.06 0 -0.06 0.06 -0.06 0.12 z M39.24 8.100000000000001 l-0.06 -0.06 l-0.66 0 l-0.06 0.06 l0.78 0 z M40.32 8.700000000000003 l-0.18 -0.12 c-0.12 -0.06 -0.18 -0.18 -0.18 -0.3 c0 -0.06 0.06 -0.12 0.12 -0.12 l0.54 -0.12 c0.12 -0.06 0.24 -0.06 0.3 -0.06 l0.12 0.06 l0 0.12 l-0.12 0 c-0.12 0 -0.18 0.12 -0.3 0.24 c-0.12 0.18 -0.18 0.3 -0.3 0.3 z M37.68 9.060000000000002 c0.18 0 0.36 -0.06 0.36 -0.12 s0 -0.06 -0.12 -0.06 l-0.24 0 c-0.12 0 -0.18 -0.06 -0.24 -0.12 c0 -0.18 -0.12 -0.24 -0.18 -0.24 s-0.12 0.06 -0.12 0.12 l0 0.06 l-0.36 0 l0.24 0.18 c0.18 0.12 0.48 0.18 0.66 0.18 z M32.76 8.939999999999998 l0.06 -0.06 c0 -0.06 0 -0.12 -0.06 -0.18 l-0.06 0 l0 0.12 z M32.4 9.240000000000002 l0.06 -0.06 l-0.12 -0.18 c-0.06 -0.18 -0.24 -0.24 -0.54 -0.24 c-0.18 0 -0.3 0.06 -0.3 0.06 l0 0.12 l-0.12 0.12 z M33.42 9.060000000000002 l0.12 -0.12 c0 -0.12 0 -0.18 -0.06 -0.18 l-0.12 0.18 c0 0.06 0 0.12 0.06 0.12 z M34.62 8.880000000000003 l0.06 -0.06 l-0.12 -0.06 c-0.06 0 -0.06 0 -0.06 0.06 l0 0.06 l0.12 0 z M39.24 8.759999999999998 l0.06 -0.12 l-0.12 -0.06 c-0.06 0 -0.06 0.06 -0.06 0.06 l0 0.06 z M30.54 9.479999999999997 l0.06 -0.06 l-0.12 -0.3 c0 -0.06 0.06 -0.12 0.24 -0.12 c0.12 0 0.24 0 0.24 -0.06 l-0.18 0 c-0.12 -0.06 -0.18 -0.06 -0.3 -0.06 c-0.12 0.06 -0.24 0.12 -0.24 0.24 l0.06 0.12 c0.06 0.12 0.18 0.24 0.24 0.24 z M29.76 9.600000000000001 c0.12 0 0.3 -0.12 0.3 -0.3 c-0.06 -0.18 -0.12 -0.24 -0.3 -0.24 s-0.36 0.18 -0.36 0.3 c0 0.06 0.06 0.12 0.12 0.18 s0.12 0.06 0.24 0.06 z M28.92 9.54 l0 -0.24 c-0.06 -0.12 -0.12 -0.18 -0.18 -0.18 l0 0.06 c-0.06 0 -0.06 0.06 -0.06 0.12 l0.06 0.12 z M27.66 9.54 c0.06 0 0.18 -0.06 0.18 -0.12 s0 -0.12 -0.12 -0.12 c-0.06 0 -0.12 0.06 -0.18 0.12 l0.06 0.12 l0.06 0 z M26.58 9.600000000000001 l0.12 -0.06 c0.06 -0.06 0.12 -0.12 0.12 -0.18 s-0.06 -0.06 -0.06 -0.06 c-0.06 0 -0.12 0.06 -0.18 0.12 l-0.06 0.12 z M28.32 9.54 l0 -0.12 l-0.06 -0.12 l-0.06 0 l0 0.12 z M20.88 9.780000000000001 l-0.06 -0.06 l-0.12 -0.06 s-0.06 0 -0.06 0.06 l0 0.06 l0.24 0 z M36.96 9.240000000000002 c0.12 0 0.18 -0.06 0.18 -0.06 c-0.06 -0.06 -0.12 -0.06 -0.18 -0.06 l-0.18 0.06 c0 0.06 0.06 0.06 0.18 0.06 z M37.56 9.54 c0.06 0 0.12 -0.06 0.12 -0.18 c-0.06 -0.06 -0.12 -0.12 -0.24 -0.12 c-0.06 0 -0.06 0 -0.06 0.06 l0 0.06 c0 0.12 0.12 0.18 0.18 0.18 z M25.86 10.079999999999998 l0.12 -0.18 c0 -0.06 -0.06 -0.12 -0.12 -0.12 c-0.12 0 -0.12 0.06 -0.12 0.12 c0 0.12 0.06 0.18 0.12 0.18 z M23.34 10.14 l0.12 -0.06 l-0.18 -0.06 s-0.06 0 -0.06 0.06 l0 0.06 l0.12 0 z M35.1 9.899999999999999 l0.24 -0.06 l-0.42 -0.18 l-0.06 0.12 c0 0.06 0.12 0.12 0.24 0.12 z M24.54 10.259999999999998 c0.12 0 0.18 -0.06 0.18 -0.06 l0 -0.06 l-0.18 -0.12 c-0.06 0 -0.12 0 -0.12 0.06 l-0.18 0.12 c0 0.06 0.12 0.06 0.3 0.06 z M31.32 10.259999999999998 l0.18 -0.12 c0 -0.06 -0.06 -0.12 -0.18 -0.18 l-0.24 -0.12 c-0.12 0 -0.12 0 -0.18 0.06 l0 0.06 c0 0.12 0.18 0.3 0.42 0.3 z M20.46 10.380000000000003 l0.12 -0.06 l-0.12 -0.06 l-0.12 0.06 c0 0.06 0.06 0.06 0.12 0.06 z M1.5 11.219999999999999 l0.12 -0.06 l-0.06 -0.06 l-0.12 -0.06 l-0.06 0.12 z M28.26 10.259999999999998 l0 -0.06 l-0.12 -0.06 l-0.12 0.06 c0 0.06 0.06 0.06 0.12 0.06 l0.12 0 z M33.36 10.380000000000003 c-0.06 0 -0.06 -0.06 -0.06 -0.12 l0.12 -0.18 c0.06 0 0.06 0.06 0.06 0.18 z M20.82 10.799999999999997 l0.06 -0.12 l-0.12 -0.12 c-0.06 0 -0.06 0.06 -0.06 0.12 c0.06 0.12 0.12 0.12 0.12 0.12 z M18.36 11.04 c0.06 0 0.18 -0.06 0.18 -0.12 s-0.06 -0.18 -0.24 -0.18 c0 -0.06 -0.06 -0.06 -0.06 -0.06 c-0.12 0 -0.12 0.06 -0.12 0.18 c0.06 0.12 0.18 0.18 0.24 0.18 z M20.28 10.979999999999997 c0.06 0 0.12 -0.06 0.12 -0.12 c0 -0.12 0 -0.18 -0.12 -0.18 c-0.06 0 -0.12 0.06 -0.12 0.18 z M17.88 10.920000000000002 l0.12 -0.06 l-0.06 -0.06 l-0.12 0 s-0.06 0 -0.06 0.06 z M19.56 11.159999999999997 c0.12 0 0.18 -0.06 0.18 -0.12 l0 -0.06 c-0.12 -0.06 -0.24 -0.12 -0.36 -0.12 s-0.18 0.06 -0.18 0.18 c0.06 0.06 0.18 0.12 0.36 0.12 z M23.7 10.979999999999997 l0.24 -0.06 l0 -0.06 c0 -0.12 -0.12 -0.12 -0.24 -0.12 s-0.18 0.06 -0.24 0.12 c0 0.06 0.12 0.12 0.24 0.12 z M35.16 10.979999999999997 c-0.24 0 -0.48 -0.06 -0.72 -0.12 l-0.42 -0.12 c-0.12 0 -0.12 0 -0.18 0.12 c0 0.06 -0.06 0.06 -0.12 0.06 l-0.12 -0.06 l-0.12 -0.12 l0.06 0 l0.18 -0.06 c0.12 -0.12 0.66 -0.3 0.9 -0.3 c0.06 0 0.12 0 0.12 0.06 c0.06 0.06 0.36 0.06 0.72 0.06 l0.6 -0.06 c0.42 0 0.78 0.12 0.84 0.24 c0 0.12 -0.12 0.18 -0.3 0.18 s-0.6 0 -0.96 0.06 z M17.1 11.520000000000003 l-0.06 -0.18 c0 -0.12 -0.18 -0.24 -0.3 -0.24 s-0.24 0.12 -0.24 0.18 l0.12 0.06 l0.12 0 l0.18 0.06 z M30.18 11.64 l-0.24 0 c-0.18 0 -0.24 -0.06 -0.3 -0.24 l0 -0.12 c0 -0.06 0 -0.12 0.06 -0.12 l0.12 0 c0.24 0 0.6 -0.24 0.66 -0.42 c0.06 0 0.06 -0.06 0.18 -0.06 c0.18 0 0.54 0.12 0.54 0.24 c0 0.06 0.18 0.12 0.42 0.12 s0.36 0 0.36 0.06 l-0.12 0.12 c0 0.06 0.06 0.06 0.24 0.12 l0.12 0.06 l-0.6 0 l-0.54 0.06 l-0.12 -0.06 l0.48 -0.18 l-0.24 0 c-0.24 0 -0.48 0.06 -0.54 0.18 s-0.3 0.24 -0.48 0.24 z M21.66 11.399999999999999 c0.06 0 0.12 -0.06 0.12 -0.18 l-0.12 -0.12 c-0.06 0 -0.12 0.06 -0.12 0.12 l0 0.06 c0 0.06 0.06 0.12 0.12 0.12 z M-3.3 12.119999999999997 l0.06 -0.06 l0 -0.06 l-0.12 -0.06 c-0.06 0 -0.06 0.06 -0.06 0.06 l0 0.06 z M13.74 12 l0.18 -0.36 l-0.06 -0.18 l-0.3 0 c-0.06 0.06 -0.12 0.06 -0.12 0.12 l0.12 0.3 c0.06 0.06 0.12 0.12 0.18 0.12 z M14.82 11.82 c0.12 0 0.18 -0.06 0.18 -0.18 l0 -0.06 c0 -0.06 -0.18 -0.12 -0.36 -0.12 c-0.24 0 -0.3 0 -0.3 0.06 l0.12 0.18 z M17.76 11.64 l0 -0.12 c0 -0.06 -0.12 -0.12 -0.18 -0.12 l-0.12 0.06 l0.06 0.06 z M15.18 12.060000000000002 c0.06 0 0.12 -0.12 0.18 -0.3 l0.12 -0.18 c-0.06 0 -0.06 0.06 -0.18 0.12 l-0.18 0.3 c0 0.06 0 0.06 0.06 0.06 z M20.04 11.700000000000003 c0.12 0 0.24 -0.06 0.36 -0.12 l0.06 -0.12 c0 -0.06 -0.06 -0.06 -0.18 -0.06 c-0.18 0.06 -0.36 0.12 -0.42 0.18 l0 0.06 c0 0.06 0.06 0.06 0.18 0.06 z M28.32 11.280000000000001 c0.12 0 0.18 -0.06 0.18 -0.06 c-0.06 -0.06 -0.18 -0.06 -0.24 -0.06 s-0.12 0 -0.12 0.06 l-0.06 0.06 l0.24 0 z M12.84 12 c0.24 -0.06 0.36 -0.12 0.36 -0.18 s-0.06 -0.06 -0.12 -0.06 l-0.24 0 c-0.18 0.06 -0.3 0.12 -0.3 0.18 c0 0 0.12 0.06 0.3 0.06 z M11.46 12.299999999999997 l0.06 -0.06 l0 -0.06 c0 -0.12 -0.06 -0.18 -0.06 -0.18 c-0.06 0 -0.12 0.12 -0.12 0.18 l0 0.06 z M16.44 12.299999999999997 c0.06 0 0.12 -0.06 0.12 -0.18 c0 -0.06 0 -0.12 -0.12 -0.12 c-0.06 0 -0.12 0.06 -0.12 0.12 z M12.18 12.780000000000001 c0.24 0 0.6 -0.18 0.6 -0.36 c0 -0.12 -0.18 -0.12 -0.36 -0.12 l-0.18 0.06 l0.06 0.12 c0 0.06 -0.06 0.12 -0.12 0.12 l-0.12 0.06 l0 0.06 z M17.04 12.240000000000002 l0 -0.06 l-0.12 -0.06 c-0.06 0 -0.06 0 -0.06 0.06 l0 0.06 l0.18 0 z M25.92 12.060000000000002 l-0.3 0 l0.06 -0.06 l0.54 0 c0 0.06 -0.12 0.06 -0.3 0.06 z M19.68 12.54 l-0.06 0 l-0.18 -0.06 l-0.06 -0.12 l0.06 -0.12 l0.12 0 l0.12 0.06 l0.06 0.12 z M15.12 12.600000000000001 c0.18 0 0.3 -0.06 0.3 -0.12 l-0.12 -0.06 l-0.24 0 c-0.18 0.06 -0.36 0.12 -0.36 0.18 l0.42 0 z M24.96 12.240000000000002 l-0.72 0 l0.06 -0.06 l0.6 0 c0.06 0 0.06 0 0.06 0.06 z M17.4 12.96 l-0.36 0 l0.06 -0.06 c0.06 -0.06 0.12 -0.06 0.18 -0.06 l0.12 0.06 l0 0.06 z M15.24 13.259999999999998 c0.18 0 0.48 -0.12 0.48 -0.24 l-0.06 -0.06 c-0.06 -0.06 -0.12 -0.06 -0.18 -0.06 l-0.3 0.06 c-0.18 0.06 -0.24 0.12 -0.24 0.18 z M3.06 14.159999999999997 l1.5 -0.24 c0.48 -0.06 0.78 -0.12 0.78 -0.24 c0 -0.06 -0.12 -0.12 -0.24 -0.18 l-0.24 -0.12 c-0.06 0 -0.12 0 -0.18 0.06 c-0.12 0.18 -0.3 0.18 -1.38 0.36 c-0.36 0.06 -0.54 0.18 -0.54 0.24 s0.12 0.12 0.3 0.12 z M5.64 13.68 l0.12 -0.18 c0 -0.06 0 -0.12 -0.06 -0.12 l-0.12 0.18 c0 0.06 0 0.12 0.06 0.12 z M14.82 13.68 c0.12 -0.06 0.18 -0.06 0.18 -0.12 s-0.12 -0.12 -0.18 -0.12 s-0.18 0 -0.18 0.06 l0 0.06 c0 0.06 0.06 0.12 0.18 0.12 z M13.68 14.100000000000001 l-0.24 0 l0 -0.06 c0 -0.06 0.06 -0.06 0.06 -0.06 c0.06 0 0.12 0 0.12 0.06 z M14.4 14.219999999999999 l-0.18 0 l0.06 -0.06 l0.12 -0.06 c0.06 0 0.12 0 0.18 0.06 c0 0.06 -0.06 0.06 -0.18 0.06 z M1.38 14.700000000000003 l0.18 -0.06 l-0.06 -0.06 l-0.36 0 l0 0.06 s0.06 0.06 0.24 0.06 z M0.42 15.060000000000002 l0.12 -0.06 l0.06 -0.12 c0 -0.06 -0.06 -0.12 -0.12 -0.18 l-0.12 -0.06 l-0.06 0 c-0.06 0 -0.12 0.06 -0.12 0.12 l0.06 0.18 c0.06 0.12 0.12 0.12 0.18 0.12 z M-0.3 15.060000000000002 c0.06 0 0.18 -0.06 0.18 -0.18 l0 -0.06 c0 -0.06 0 -0.06 -0.06 -0.06 c-0.12 0 -0.18 0.06 -0.24 0.12 c0 0.12 0.06 0.18 0.12 0.18 z M-2.1 15.240000000000002 l0.12 -0.06 l-0.18 -0.06 s-0.06 0 -0.06 0.06 l0 0.06 l0.12 0 z M5.52 16.020000000000003 c0.06 0 0.12 -0.06 0.12 -0.12 l-0.12 -0.24 c0 -0.06 0 -0.06 0.06 -0.06 l0.06 -0.12 l0 -0.06 c0 -0.06 -0.3 -0.12 -0.54 -0.12 c-0.3 0 -0.42 0 -0.42 0.06 l0.24 0.12 c0.18 0.06 0.36 0.18 0.42 0.3 c0 0.12 0.12 0.24 0.18 0.24 z M4.2 15.780000000000001 c0.06 0 0.12 -0.06 0.12 -0.18 l0 -0.12 c-0.06 0 -0.12 0.06 -0.12 0.12 l-0.06 0.12 z M0.42 16.619999999999997 c0.06 0 0.12 -0.06 0.12 -0.12 l0 -0.06 l-0.24 -0.12 c-0.06 0 -0.12 0.06 -0.12 0.18 c0 0.06 0.06 0.12 0.24 0.12 z M1.26 16.619999999999997 l0.12 -0.18 c0 -0.06 -0.06 -0.12 -0.12 -0.12 s-0.12 0.06 -0.12 0.12 z M4.44 16.5 l-0.12 -0.06 c0 -0.06 0.12 -0.12 0.3 -0.18 l0.12 0 c0.06 0 0.06 0.06 0.06 0.06 c0 0.06 -0.18 0.18 -0.36 0.18 z M3.54 16.68 l-0.12 -0.06 l0.06 -0.12 l0.12 0.06 l0.06 0.06 z M-2.22 17.22 l0.24 -0.06 c0.12 0 0.24 -0.06 0.24 -0.12 c0 0 -0.12 -0.06 -0.3 -0.06 c-0.12 0 -0.24 0.06 -0.24 0.12 z M-1.32 17.1 l-0.06 -0.06 c0 -0.06 -0.06 -0.06 -0.06 -0.06 l-0.12 0.06 c0 0.06 0.06 0.06 0.12 0.06 l0.12 0 z M12.6 17.04 l-0.12 0 c-0.06 0 -0.12 -0.06 -0.18 -0.12 l-0.06 -0.06 c0 -0.06 0.06 -0.06 0.12 -0.06 c0.12 0 0.3 0.06 0.36 0.12 l0 0.06 z M11.7 17.1 c-0.12 0 -0.18 -0.06 -0.18 -0.12 l0.24 0 l0 0.06 z M-0.6 17.520000000000003 l0.12 -0.06 l-0.12 -0.06 l-0.12 0.06 c0 0.06 0.06 0.06 0.12 0.06 z M10.38 17.28 c0 -0.06 0 -0.18 -0.06 -0.24 l-0.06 0 l-0.06 0.06 l0.06 0.06 c0 0.12 0.06 0.12 0.12 0.12 z M-1.86 18 c-0.06 0 -0.12 0 -0.12 -0.06 l0.06 0 c0 -0.06 0.06 -0.06 0.12 -0.06 s0.12 0 0.12 0.06 c0 0 -0.06 0.06 -0.18 0.06 z M-3.96 18.36 c0.12 0 0.12 -0.06 0.12 -0.12 c-0.06 -0.12 -0.24 -0.12 -0.42 -0.12 l-0.18 0 c0 0.06 0.06 0.06 0.12 0.12 z M10.32 18.6 c0 -0.06 0 -0.18 -0.12 -0.3 c0 -0.06 -0.06 -0.06 -0.06 -0.06 l0 0.12 c0.06 0.18 0.12 0.24 0.18 0.24 z M10.08 20.340000000000003 l0.06 -0.06 l-0.06 -0.06 c0 -0.06 -0.06 -0.12 -0.18 -0.12 l-0.06 0.06 z M10.02 21.479999999999997 c0 -0.06 0 -0.12 -0.06 -0.18 l-0.12 0 l0 0.12 l0.12 0.06 l0.06 0 z M9.9 22.259999999999998 l0.12 -0.12 c0 -0.12 0 -0.18 -0.06 -0.18 l-0.12 0.18 c0 0.06 0 0.12 0.06 0.12 z M9.54 25.32 c0.06 0 0.12 0 0.12 -0.06 l-0.06 0 c0 -0.06 -0.06 -0.06 -0.06 -0.06 l-0.12 0.06 c0 0.06 0.06 0.06 0.12 0.06 z M9.42 26.939999999999998 c0.06 0 0.18 -0.06 0.3 -0.18 l0.06 -0.12 l-0.18 0 c-0.12 0 -0.24 0.06 -0.24 0.18 l0 0.06 c0 0.06 0 0.06 0.06 0.06 z M9.36 27.659999999999997 c0.06 0 0.12 -0.06 0.12 -0.12 l-0.12 -0.18 l-0.12 0.18 c0 0.06 0.06 0.12 0.12 0.12 z M9.6 29.1 l-0.06 -0.36 c-0.06 -0.24 -0.12 -0.3 -0.18 -0.3 l-0.12 0.12 l-0.12 0.24 c0 0.06 0.06 0.12 0.12 0.12 l0.12 -0.06 l0.12 0.12 c0 0.06 0.06 0.12 0.12 0.12 z M9.3 29.7 l0.18 -0.24 l0.06 -0.18 s-0.06 0 -0.12 0.12 l-0.18 0.24 c0 0.06 0 0.06 0.06 0.06 z M9.18 31.14 c0 -0.06 0 -0.18 -0.06 -0.24 l-0.06 0 l-0.06 0.06 l0.12 0.18 l0.06 0 z M9.18 32.16 c0 -0.06 0 -0.18 -0.06 -0.24 l-0.06 0 l0 0.12 l0.06 0.12 l0.06 0 z M9 33.78 l0.06 -0.12 l-0.06 -0.12 l-0.06 0 l0 0.12 z M9.24 34.68 l0.06 -0.06 l-0.12 -0.24 c-0.18 -0.12 -0.24 -0.3 -0.24 -0.36 l0.06 0 l-0.06 0 l-0.06 0.12 c0 0.18 0.18 0.54 0.36 0.54 z M8.64 34.8 c0 -0.06 0 -0.18 -0.06 -0.3 l-0.12 -0.06 l0.06 0.18 c0 0.12 0.06 0.18 0.06 0.18 l0.06 0 z M9.06 35.34 l0 -0.06 l-0.06 -0.18 l-0.06 -0.06 l0 0.12 z M7.14 39.78 l0.06 -0.12 c0.06 -0.12 0.06 -0.24 0.06 -0.3 s-0.06 -0.06 -0.06 -0.06 l-0.12 0 c-0.06 0.06 -0.06 0.24 -0.06 0.36 c0.06 0.06 0.06 0.12 0.12 0.12 z M8.82 40.019999999999996 l0.12 -0.42 c-0.06 -0.06 -0.06 -0.12 -0.12 -0.12 s-0.12 0.12 -0.12 0.3 c0.06 0.18 0.06 0.24 0.12 0.24 z M9.12 41.04 l-0.06 -0.24 c-0.06 -0.24 -0.18 -0.3 -0.24 -0.3 l-0.06 0.06 l0.06 0.12 c0 0.18 0.24 0.36 0.3 0.36 z M7.32 40.8 l0 -0.06 c0 -0.06 0 -0.12 -0.06 -0.12 c0 -0.06 0 -0.06 -0.06 -0.06 l0.06 0.24 l0.06 0 z M8.76 41.46 l0.12 -0.06 l0.06 -0.18 l-0.06 -0.06 c-0.06 0 -0.12 0.06 -0.12 0.18 l0 0.12 z M8.82 42.239999999999995 c0.06 0 0.12 -0.12 0.12 -0.24 s0 -0.12 -0.06 -0.12 c-0.12 0.06 -0.12 0.12 -0.12 0.24 z M7.08 42.3 c0.06 0 0.12 -0.06 0.12 -0.18 l-0.12 -0.12 l-0.12 0.18 c0 0.06 0.06 0.12 0.12 0.12 z M7.5 42.120000000000005 c0.06 0 0.06 -0.06 0.06 -0.06 l-0.12 -0.06 c-0.06 0 -0.06 0 -0.06 0.06 l0 0.06 l0.12 0 z M8.16 42.54 l0.24 -0.18 c0.12 -0.06 0.18 -0.18 0.18 -0.24 l-0.06 0 c-0.06 0 -0.18 0.06 -0.24 0.18 z M9.06 44.28 c0 0 0.06 -0.06 0.06 -0.18 l0 -0.06 s-0.06 -0.06 -0.18 -0.06 c-0.06 0 -0.12 0 -0.12 0.06 l0.06 0.06 c0.06 0.12 0.12 0.18 0.18 0.18 z M8.88 44.64 l-0.06 -0.24 l-0.06 -0.06 l0.06 0.3 l0.06 0 z M7.44 45.6 l0 -0.06 l-0.18 -0.12 l-0.12 -0.06 l0.06 0.12 c0.06 0.12 0.18 0.12 0.18 0.12 l0.06 0 z M8.88 46.14 l0 -0.06 l-0.06 -0.18 l-0.06 0 l0 0.12 c0 0.12 0.06 0.12 0.12 0.12 z M8.82 47.04 l0.06 -0.24 c0 -0.12 0 -0.18 -0.12 -0.18 c-0.06 0 -0.06 0 -0.06 0.06 l0 0.12 c0.06 0.12 0.06 0.24 0.12 0.24 z M8.94 48.06 c0.06 0 0.12 -0.12 0.12 -0.24 s-0.06 -0.18 -0.12 -0.18 c-0.12 0 -0.12 0.06 -0.12 0.18 z M7.56 48.54 c0.12 0 0.18 -0.06 0.18 -0.18 l0.06 -0.06 l-0.06 0 l-0.12 0.06 c-0.12 0.06 -0.18 0.06 -0.18 0.12 s0.06 0.06 0.12 0.06 z M7.56 49.08 c0 -0.06 0 -0.18 -0.06 -0.3 l-0.12 -0.06 c0 0.06 0 0.12 0.06 0.18 c0 0.12 0.06 0.18 0.06 0.18 l0.06 0 z M9 49.2 c0.06 0 0.12 -0.06 0.12 -0.12 l0 -0.06 c0 -0.06 -0.06 -0.12 -0.12 -0.18 l-0.06 0 c-0.06 0 -0.06 0.06 -0.06 0.18 c0.06 0.12 0.06 0.18 0.12 0.18 z M7.5 52.2 c0.06 0 0.12 -0.12 0.12 -0.18 c-0.06 -0.06 -0.12 -0.12 -0.24 -0.12 c-0.06 0 -0.06 0 -0.06 0.06 l0 0.06 c0 0.12 0.12 0.18 0.18 0.18 z M9.18 53.22 l0.06 -0.12 l-0.12 -0.06 c-0.06 0 -0.06 0 -0.06 0.12 z M9.48 53.22 l0 -0.06 l-0.06 -0.12 l-0.06 0 l0 0.12 z M8.88 53.46 l0.12 -0.06 l-0.06 -0.06 l-0.12 -0.06 l-0.06 0.12 z M9.42 55.68 c0.06 0 0.12 0 0.18 -0.12 l0.06 -0.18 l-0.12 -0.3 c-0.06 -0.06 -0.06 -0.12 -0.12 -0.12 s-0.06 0.06 -0.12 0.24 l0 0.18 c0 0.18 0.06 0.3 0.12 0.3 z M10.92 59.76 c-0.12 0 -0.18 0 -0.18 -0.06 l0.06 0 c0.06 -0.06 0.12 -0.06 0.18 -0.06 l0.12 0.06 s-0.06 0.06 -0.18 0.06 z">
        <path d="M10.5 59.7 c-0.06 0 -0.06 -0.06 -0.12 -0.12 c-0.06 -0.12 -0.24 -0.18 -0.48 -0.18 c-0.42 0 -2.34 -0.96 -2.4 -1.2 c0 -0.12 -0.24 -0.3 -0.54 -0.48 c-1.2 -0.84 -2.34 -2.88 -2.34 -4.08 l0 -0.06 c0 -0.3 -0.06 -0.72 -0.18 -0.9 l-0.06 -0.48 l0.06 -0.42 l-0.12 -0.6 c-0.06 -0.24 -0.12 -0.6 -0.12 -0.84 l0.06 -0.72 l-0.06 -0.42 c-0.06 -0.24 -0.06 -0.78 -0.12 -1.14 c0 -0.3 -0.06 -0.66 -0.12 -0.72 l0 -0.24 l0.06 -0.18 c0 -0.06 -0.06 -0.12 -0.18 -0.24 c-0.06 -0.12 -0.12 -0.12 -0.12 -0.18 l0.12 -0.06 c0.12 0 0.18 -0.18 0.18 -0.36 s-0.06 -0.48 -0.18 -0.66 c-0.06 -0.06 -0.06 -0.18 -0.06 -0.24 c0 -0.12 0 -0.18 0.06 -0.24 l0.06 -0.36 l0 -0.18 c-0.06 -0.3 -0.12 -0.72 -0.12 -1.08 c0 -0.42 0.06 -0.78 0.12 -0.9 c0.06 -0.06 0.12 -0.24 0.12 -0.42 l-0.06 -0.48 c-0.12 -0.84 -0.18 -1.56 -0.18 -2.28 c0 -0.6 0.06 -1.14 0.12 -1.74 l0 -0.6 l0.12 -0.48 l0.18 -0.48 l-0.06 -0.6 l0 -0.24 l0.06 -0.42 l0.12 -0.24 l-0.12 -0.12 c-0.06 -0.06 -0.12 -0.24 -0.12 -0.6 l0.06 -1.14 l-0.06 -0.36 l-0.06 -0.12 l0.12 -0.18 c0.06 -0.06 0.06 -0.3 0.06 -0.48 l0 -0.66 l0.06 -0.78 l0.12 -0.48 l-0.06 -0.42 c0 -0.06 0.06 -0.12 0.12 -0.12 c0.12 0 0.12 0 0.12 -0.06 l-0.06 -0.3 c-0.12 -0.24 -0.18 -0.96 -0.18 -1.62 l0.06 -0.9 c0.12 -0.36 0.3 -2.52 0.3 -2.76 l0 -0.24 c0 -0.42 0.06 -0.78 0.18 -0.9 l0.06 -0.12 l-0.06 -0.18 c-0.06 0 -0.06 -0.06 -0.06 -0.12 l0.12 -0.24 c0.24 -0.18 0.42 -1.2 0.42 -1.92 c0 -0.36 -0.06 -0.6 -0.12 -0.78 l0.06 -0.3 l-0.06 -0.36 l-0.06 -0.12 l0.12 -0.3 c0.06 -0.12 0.12 -0.24 0.12 -0.36 l-0.12 -0.42 c0 -0.12 0.06 -0.24 0.12 -0.3 l0.18 -0.24 c0 -0.12 -0.12 -0.12 -0.3 -0.24 c-0.12 -0.06 -0.3 -0.12 -0.54 -0.12 l-0.42 0.06 c-0.12 0 -0.24 -0.06 -0.3 -0.18 s-0.24 -0.18 -0.36 -0.18 s-0.12 0 -0.12 0.06 l0.06 0.24 l0.12 0.18 c0 0.06 -0.06 0.06 -0.12 0.06 l-0.3 0 c-0.06 0 -0.12 0 -0.12 0.06 s-0.06 0.12 -0.24 0.12 l-0.12 0.06 l0.3 0.24 l-0.42 -0.06 c-0.06 0 -0.18 0 -0.18 0.06 l-0.06 0.06 c-0.12 0 -0.18 -0.06 -0.36 -0.18 s-0.24 -0.18 -0.3 -0.18 s-0.06 0.06 -0.06 0.12 c0 0.12 -0.12 0.24 -0.3 0.24 c-0.12 0 -0.3 0.18 -0.42 0.3 c-0.12 0.24 -0.3 0.3 -0.6 0.3 l-0.18 0 c-0.12 0 -0.24 0 -0.24 0.06 s-0.24 0.12 -0.48 0.18 c-0.3 0.06 -0.66 0.18 -0.78 0.24 l-0.18 0.06 c-0.06 0 -0.06 -0.06 -0.06 -0.18 l0 -0.06 c0 -0.06 -0.06 -0.12 -0.12 -0.12 l-0.42 0.06 c-0.3 0.12 -0.66 0.18 -0.78 0.18 c-0.06 0 -0.12 0 -0.12 0.06 l0.24 0.18 l-0.9 0 l0.3 0.12 c0 0.06 -0.18 0.12 -0.66 0.24 c-0.36 0.12 -0.54 0.12 -0.78 0.12 c-0.12 0 -0.24 0 -0.36 -0.06 c-0.18 -0.12 -0.42 -0.12 -0.6 -0.12 c-0.12 0 -0.24 0 -0.24 0.12 s0.18 0.18 0.3 0.24 l-0.3 0 c-0.24 0 -0.42 0 -0.42 0.06 l0.06 0.12 l-0.06 0.06 c-0.18 0 -0.3 -0.18 -0.36 -0.48 c0 -0.06 -0.06 -0.12 -0.18 -0.12 l-0.42 0.12 l-0.12 0.12 l0.12 0.18 l-0.06 0.06 l-0.18 -0.06 c-0.3 -0.12 -0.66 -0.12 -0.96 -0.12 c-0.24 0 -0.48 0 -0.48 0.06 l-0.12 0.06 c-0.24 0 -0.9 -0.3 -0.96 -0.48 c0 -0.06 -0.24 -0.24 -0.48 -0.36 c-0.24 -0.18 -0.42 -0.36 -0.42 -0.48 l0 -0.06 c0 -0.06 -0.12 -0.18 -0.24 -0.3 c-0.48 -0.42 -0.9 -1.14 -1.2 -2.1 c-0.12 -0.42 -0.18 -0.66 -0.18 -0.84 s0.06 -0.3 0.18 -0.42 c0.24 -0.3 0.42 -0.36 1.74 -0.54 l1.56 -0.18 c0 -0.06 0.48 -0.12 1.02 -0.12 c0.54 -0.06 0.9 -0.12 0.9 -0.18 s0.24 -0.12 0.54 -0.18 l0.24 0 c0.12 0 0.24 0 0.24 0.06 s0.06 0.12 0.12 0.12 c0.12 0 0.12 -0.06 0.12 -0.18 c0 -0.06 0.18 -0.06 0.36 -0.06 l0.24 0 l-0.36 -0.18 l0.36 -0.12 l0.72 -0.18 l0.12 0 c0.12 0 0.12 0.06 0.18 0.18 l0.12 0.18 l0.12 -0.18 c0.06 -0.12 0.12 -0.18 0.18 -0.18 l0.12 0 l0.12 -0.06 c0.06 -0.18 0.72 -0.3 1.14 -0.3 c0.18 0 0.3 0 0.36 0.06 l0.18 0.12 c0.12 0 0.24 -0.06 0.42 -0.3 c0.18 -0.18 0.36 -0.3 0.48 -0.3 s0.18 0.06 0.18 0.12 l0.06 0.12 l0.12 -0.06 l0.06 -0.12 l-0.12 -0.18 c0 -0.06 0.06 -0.06 0.18 -0.06 s0.18 0.06 0.18 0.18 l0 0.06 l0.24 0.06 c0.18 0 0.24 -0.12 0.24 -0.24 l0 -0.12 c0 -0.06 0 -0.12 0.06 -0.12 s0.12 0.12 0.12 0.24 s0.06 0.18 0.12 0.18 l0.06 0 c0.12 0 0.24 -0.12 0.24 -0.3 c0 -0.12 0.06 -0.24 0.12 -0.24 s0.18 0.06 0.18 0.24 l0 0.12 l0.12 -0.18 c0.12 -0.18 0.42 -0.36 0.66 -0.42 l0.24 0 c0.12 0 0.24 0 0.24 0.06 s-0.06 0.12 -0.24 0.18 l-0.06 0 s0.12 0.06 0.3 0.06 c0.3 0 0.42 -0.06 0.42 -0.18 l0 -0.12 c0 -0.12 0.12 -0.18 0.48 -0.18 l0.24 0 c0.12 0 0.18 -0.06 0.18 -0.12 l0 -0.06 l0.06 -0.12 l0.12 0.12 l0.24 0.06 c0.06 0 0.12 0 0.12 -0.06 l0.18 -0.12 l0.48 0.24 l-0.12 -0.18 l0.12 -0.18 c0.12 -0.12 0.3 -0.24 0.42 -0.24 c0.06 0 0.12 0.06 0.12 0.12 l0 0.06 c0 0.06 0.12 0.12 0.3 0.12 c0.3 0 0.36 -0.12 0.36 -0.66 s0 -0.72 0.18 -0.72 c0.12 0 0.24 0.06 0.48 0.18 c0.42 0.24 1.14 0.48 1.44 0.48 c0.06 0 0.12 0 0.12 -0.06 s0.3 -0.12 0.6 -0.12 s0.6 -0.06 0.66 -0.18 l0.12 -0.06 l0 0.24 l0.12 -0.06 c0.06 -0.06 0.12 -0.06 0.12 -0.18 l-0.06 -0.12 l0.24 0.06 l0.36 0.06 c0.48 0 1.2 -0.18 1.2 -0.36 l-0.06 -0.12 l0.3 0 c0.12 0 0.12 0 0.12 -0.06 s0.06 -0.06 0.06 -0.06 l0.06 0 c0.18 0.06 0.36 0.12 0.6 0.12 c0.3 0 0.6 -0.06 0.66 -0.18 s0.12 -0.12 0.18 -0.12 s0.12 0 0.18 0.06 c0.12 0.06 0.42 0.12 0.6 0.12 s0.3 0 0.3 -0.06 l0 -0.12 c0 -0.12 0.06 -0.12 0.12 -0.18 l0.12 -0.06 l0.36 0.18 c0.06 0 0.06 0 0.06 -0.06 s0.3 -0.18 0.6 -0.18 c0.36 0 0.66 -0.06 0.72 -0.12 l0.54 -0.18 c0.18 0 0.48 -0.06 0.66 -0.12 c0.24 -0.12 0.72 -0.12 1.08 -0.12 c0.3 0 0.54 0 0.66 0.06 c0.12 0 0.3 -0.06 0.48 -0.18 c0.12 -0.12 0.36 -0.18 0.54 -0.18 l0.3 0.06 c0.36 0 0.84 -0.12 0.84 -0.3 l-0.06 -0.24 l0.24 0.18 c0.12 0.12 0.24 0.18 0.3 0.18 l0.12 -0.12 l0.06 -0.12 c0 -0.06 0 -0.06 -0.12 -0.06 l-0.12 0 l0.06 -0.12 l0.18 -0.12 l0.36 0.18 c0.06 0 0.06 0 0.06 -0.12 l0 -0.06 l0.06 0 l0.48 -0.06 l0.3 -0.06 c0.12 0 0.18 0 0.3 0.12 l0.18 0.18 l-0.18 -0.3 c0 -0.06 0.12 -0.12 0.42 -0.12 l0.9 0.06 c0.9 0 1.32 -0.06 1.32 -0.12 s0.06 -0.12 0.18 -0.12 l0.36 0 c0.12 0 0.18 0 0.18 -0.06 c0.06 -0.06 0.9 -0.12 1.92 -0.18 c0.96 0 1.8 -0.06 1.86 -0.18 c0 -0.06 0.12 -0.12 0.24 -0.12 s0.18 0.06 0.18 0.18 c0 0.06 0.24 0.12 0.48 0.12 c0.54 0 1.2 -0.12 1.62 -0.24 c0.18 -0.06 0.36 -0.06 0.54 -0.06 c0.24 0 0.48 0 0.84 0.12 c0.78 0.18 1.14 0.24 1.32 0.24 l0.06 0 l-0.12 -0.18 l0.12 0 c0.12 0 0.42 0.06 0.78 0.24 l0.48 0.18 c0.06 0 0.06 -0.06 0.06 -0.12 c0.06 -0.18 0.18 -0.24 0.36 -0.24 c0.24 0 0.48 0.06 0.66 0.24 c0.12 0.12 0.36 0.18 0.48 0.18 l0.12 0 c0.3 0 1.32 0.66 1.44 1.02 c0 0.06 0 0.12 -0.06 0.12 l-0.18 0 l0 0.06 c0 0.06 0.24 0.18 0.48 0.3 c0.18 0.06 0.3 0.12 0.3 0.18 l-0.48 0.12 c-0.66 0.12 -0.9 0.24 -0.9 0.42 l0.12 0.42 l-0.06 0.12 l0.06 0 c0.06 0 0.24 0.06 0.3 0.18 l0.24 0.12 l0.12 -0.06 c0.06 0 0 0.06 -0.06 0.12 c-0.06 0.12 -0.06 0.12 -0.12 0.12 l-0.12 -0.06 c-0.12 -0.12 -0.42 -0.18 -0.72 -0.18 c-0.3 -0.06 -0.6 -0.12 -0.6 -0.24 c-0.06 -0.06 -0.12 -0.18 -0.18 -0.18 l-0.12 0.06 l0.06 0.12 c0 0.12 -0.06 0.24 -0.24 0.3 l-0.12 0.06 c0 0.06 0.18 0.06 0.6 0.06 l0.36 0 c0.36 0 0.66 0.06 0.78 0.12 c0.18 0.06 0.48 0.12 0.72 0.12 c0.18 0 0.36 0.12 0.36 0.18 s-0.54 0.18 -1.44 0.18 c-0.72 0 -1.14 0.06 -1.14 0.12 l0.18 0.06 c0 0.06 -0.12 0.12 -0.3 0.18 l-0.3 0.06 c-0.12 0 -0.24 -0.06 -0.3 -0.12 c-0.12 -0.12 -0.36 -0.18 -0.54 -0.18 s-0.3 0.06 -0.3 0.12 s0 0.06 -0.06 0.06 l-0.06 -0.06 c-0.12 -0.12 -0.24 -0.18 -0.3 -0.18 l-0.06 0.06 l0.12 0.18 c0 0.06 -0.24 0.06 -1.08 0.12 l-0.42 0 c-0.3 0 -0.54 -0.06 -0.66 -0.12 c-0.24 -0.12 -0.6 -0.18 -1.02 -0.18 c-0.36 0 -0.66 -0.06 -0.66 -0.12 l-0.06 -0.12 l-0.06 0.12 c-0.06 0.12 -0.12 0.18 -0.18 0.18 c-0.24 0 -0.42 0.06 -0.42 0.06 c0 0.06 0.12 0.12 0.36 0.12 c0.48 0.06 0.72 0.3 0.72 0.48 c0 0.12 -0.06 0.24 -0.24 0.36 l-0.42 0.18 c-0.12 0 -0.18 -0.12 -0.24 -0.24 l0 -0.06 c0 -0.12 0.18 -0.24 0.6 -0.24 c0.12 0 0.18 0 0.18 -0.12 c0 -0.06 -0.18 -0.12 -0.3 -0.12 c-0.18 0 -0.42 0.06 -0.48 0.18 c0 0.06 -0.06 0.06 -0.12 0.06 l-0.24 -0.06 c-0.18 -0.06 -0.48 -0.12 -0.78 -0.12 c-0.54 0 -1.02 0.12 -1.08 0.3 c-0.06 0.06 -0.06 0.12 -0.12 0.12 c0 -0.06 -0.24 -0.12 -0.42 -0.12 s-0.42 0.06 -0.48 0.18 l-0.06 0.18 c0 0.12 0.12 0.18 0.3 0.18 l0.12 0 c0.06 0 0.06 0 0.06 0.06 c-0.06 0.06 -0.54 0.12 -1.14 0.18 l-0.66 0.06 c-0.36 0 -0.42 -0.06 -0.42 -0.24 c0 -0.12 0.06 -0.24 0.18 -0.24 c0.18 0 0.24 0 0.24 -0.06 c-0.06 -0.12 -0.66 -0.18 -1.14 -0.18 c-0.3 0 -0.48 0 -0.54 0.06 s-0.24 0.18 -0.42 0.24 l-0.12 0.06 l0.66 0 c0.18 0 0.24 0 0.24 0.06 l-0.18 0.3 c0 0.06 0.06 0.06 0.12 0.12 l-1.08 0.12 c-0.78 0.06 -1.32 0.12 -1.32 0.24 c0 0.06 -0.06 0.06 -0.12 0.06 l-0.24 -0.06 l-0.18 -0.12 c-0.06 0 -0.06 0 -0.06 0.06 l0 0.06 c0 0.06 0 0.06 -0.06 0.06 l-0.12 0 l-0.06 0.06 c0 0.06 0.12 0.18 0.24 0.18 l0.06 0.06 c0 0.06 0 0.06 -0.12 0.06 s-0.24 -0.12 -0.3 -0.24 s-0.18 -0.18 -0.3 -0.18 s-0.18 0.06 -0.18 0.12 s-0.18 0.12 -0.42 0.12 c-0.3 0 -0.36 0.06 -0.36 0.12 l0 0.24 c0 0.12 0 0.18 -0.06 0.18 s-0.12 -0.06 -0.18 -0.18 l-0.24 -0.06 l-1.08 0.12 c-0.12 0 -0.18 0 -0.18 -0.06 l0.12 -0.12 l-0.06 -0.18 c0 -0.06 0.06 -0.12 0.12 -0.18 l0.24 -0.12 l0 -0.06 c0 -0.06 -0.18 -0.12 -0.36 -0.12 c-0.24 0 -0.48 0.06 -0.66 0.18 c-0.12 0.06 -0.48 0.12 -0.78 0.18 c-0.3 0 -0.66 0.12 -0.78 0.24 l-0.06 0.12 c0 0.06 0 0.06 0.12 0.06 l0.72 -0.06 c0.42 0 0.54 0.06 0.54 0.18 l0 0.06 c0 0.12 0.06 0.18 0.18 0.18 l0.48 -0.06 l0.06 0.06 l0 0.06 l-0.24 0.06 c-0.54 0 -1.62 -0.18 -1.92 -0.36 l-0.78 -0.18 c-0.36 0 -0.78 -0.06 -0.96 -0.12 c-0.18 0 -0.24 0 -0.24 0.06 l0.06 0.18 c0.12 0.18 0.18 0.24 0.3 0.24 l0.3 -0.06 c0.12 0 0.24 0.12 0.24 0.24 l-0.06 0.18 c0 0.06 0 0.06 -0.06 0.06 l-0.06 -0.06 c0 -0.12 -0.12 -0.18 -0.18 -0.18 l-0.06 0.06 l0.12 0.3 c0 0.06 -0.12 0.06 -0.3 0.12 l-0.3 0 l0.3 0.18 l-0.6 0 c-0.54 0 -0.9 -0.12 -1.14 -0.3 l-0.24 -0.18 c-0.06 0 -0.12 0.06 -0.12 0.12 c-0.06 0.12 -0.24 0.24 -0.48 0.3 l-0.24 0.06 c-0.06 0 -0.06 0 -0.06 -0.06 l0.06 -0.18 c0 -0.06 -0.06 -0.12 -0.3 -0.18 l-0.18 0 c-0.06 0 -0.12 0 -0.12 0.06 l0 0.06 c0 0.12 0.12 0.18 0.18 0.18 s0.12 0.06 0.12 0.18 l0 0.06 s0.06 0.06 0.18 0.06 s0.24 0.06 0.24 0.12 l0 0.06 c0 0.06 -0.06 0.12 -0.12 0.12 l-0.06 0.06 l0.12 0.42 c0 0.06 0 0.12 -0.12 0.12 l-0.12 0.06 l0.18 0.3 l-0.18 0 c-0.06 0 -0.12 0 -0.12 0.06 s0.18 0.18 0.36 0.18 c0.18 0.06 0.3 0.18 0.3 0.24 s-0.06 0.12 -0.18 0.12 l-0.3 0.06 c0 0.06 0.06 0.06 0.24 0.12 c0.3 0.06 0.48 0.24 0.48 0.3 s-0.06 0.12 -0.18 0.12 l-0.3 0 c-0.12 0 -0.36 0.06 -0.42 0.12 s-0.12 0.06 -0.3 0.06 l-0.66 -0.06 l-0.78 -0.18 l-0.06 0.06 l-0.06 1.02 l-0.12 0.96 c0 0.6 -0.66 7.2 -0.84 8.34 l-0.3 4.5 l0 0.3 c0 0.24 0 0.9 -0.06 1.44 l-0.06 1.92 c0 0.78 -0.12 1.02 -0.6 1.2 l-0.12 0.06 c0 0.06 0.06 0.06 0.24 0.06 c0.24 0 0.42 0.06 0.42 0.12 l0 0.78 c0 1.02 0 2.76 -0.06 3.12 c-0.06 0.24 -0.06 0.6 -0.06 0.84 l0.06 1.8 l-0.06 3.36 l0.06 1.38 c0 0.24 0 0.6 0.06 0.78 c0 0.12 0 0.96 0.06 1.74 c0 1.8 0.12 3.6 0.24 4.26 l0.06 0.78 c0 0.18 0.06 0.42 0.12 0.54 c0 0.18 -0.06 0.24 -0.18 0.24 l-0.12 0 c-0.06 0 -0.12 0.06 -0.12 0.12 c0 0.12 0.06 0.24 0.24 0.24 c0.12 0.06 0.24 0.3 0.36 0.66 c0.12 0.3 0.3 0.72 0.42 0.84 c0.18 0.18 0.24 0.24 0.24 0.42 l-0.06 0.3 l-0.06 0.6 l0.12 -0.06 l0.18 0.06 l0.06 0.12 l-0.12 0.06 c-0.12 0 -0.3 0.06 -0.36 0.24 z M34.26 5.700000000000003 l0.12 -0.06 l-0.18 -0.18 l-0.12 0 l0 0.12 c0 0.06 0.12 0.12 0.18 0.12 z M34.26 7.140000000000001 l0.06 -0.06 l-0.12 -0.06 c-0.06 0 -0.06 0 -0.06 0.06 l0 0.06 l0.12 0 z M13.56 8.579999999999998 c0.06 0 0.12 0 0.12 -0.06 l-0.18 -0.12 l-0.12 -0.06 l0 0.12 c0 0.06 0.12 0.12 0.18 0.12 z M33.3 7.920000000000002 l0.12 -0.06 l-0.06 -0.06 l-0.18 0 l0 0.06 z M36.6 7.920000000000002 l0 -0.06 l-0.06 -0.18 l-0.06 0 l0 0.12 l0.06 0.12 l0.06 0 z M34.2 8.04 l0.12 -0.06 l-0.06 -0.06 l-0.18 0 l0 0.06 z M37.62 8.04 l0.06 -0.12 l-0.12 -0.12 c-0.06 0 -0.06 0.06 -0.06 0.12 z M39.24 8.100000000000001 l-0.06 -0.06 l-0.66 0 l-0.06 0.06 l0.78 0 z M40.32 8.700000000000003 l-0.18 -0.12 c-0.12 -0.06 -0.18 -0.18 -0.18 -0.3 c0 -0.06 0.06 -0.12 0.12 -0.12 l0.54 -0.12 c0.12 -0.06 0.24 -0.06 0.3 -0.06 l0.12 0.06 l0 0.12 l-0.12 0 c-0.12 0 -0.18 0.12 -0.3 0.24 c-0.12 0.18 -0.18 0.3 -0.3 0.3 z M37.68 9.060000000000002 c0.18 0 0.36 -0.06 0.36 -0.12 s0 -0.06 -0.12 -0.06 l-0.24 0 c-0.12 0 -0.18 -0.06 -0.24 -0.12 c0 -0.18 -0.12 -0.24 -0.18 -0.24 s-0.12 0.06 -0.12 0.12 l0 0.06 l-0.36 0 l0.24 0.18 c0.18 0.12 0.48 0.18 0.66 0.18 z M32.76 8.939999999999998 l0.06 -0.06 c0 -0.06 0 -0.12 -0.06 -0.18 l-0.06 0 l0 0.12 z M32.4 9.240000000000002 l0.06 -0.06 l-0.12 -0.18 c-0.06 -0.18 -0.24 -0.24 -0.54 -0.24 c-0.18 0 -0.3 0.06 -0.3 0.06 l0 0.12 l-0.12 0.12 z M33.42 9.060000000000002 l0.12 -0.12 c0 -0.12 0 -0.18 -0.06 -0.18 l-0.12 0.18 c0 0.06 0 0.12 0.06 0.12 z M34.62 8.880000000000003 l0.06 -0.06 l-0.12 -0.06 c-0.06 0 -0.06 0 -0.06 0.06 l0 0.06 l0.12 0 z M39.24 8.759999999999998 l0.06 -0.12 l-0.12 -0.06 c-0.06 0 -0.06 0.06 -0.06 0.06 l0 0.06 z M30.54 9.479999999999997 l0.06 -0.06 l-0.12 -0.3 c0 -0.06 0.06 -0.12 0.24 -0.12 c0.12 0 0.24 0 0.24 -0.06 l-0.18 0 c-0.12 -0.06 -0.18 -0.06 -0.3 -0.06 c-0.12 0.06 -0.24 0.12 -0.24 0.24 l0.06 0.12 c0.06 0.12 0.18 0.24 0.24 0.24 z M29.76 9.600000000000001 c0.12 0 0.3 -0.12 0.3 -0.3 c-0.06 -0.18 -0.12 -0.24 -0.3 -0.24 s-0.36 0.18 -0.36 0.3 c0 0.06 0.06 0.12 0.12 0.18 s0.12 0.06 0.24 0.06 z M28.92 9.54 l0 -0.24 c-0.06 -0.12 -0.12 -0.18 -0.18 -0.18 l0 0.06 c-0.06 0 -0.06 0.06 -0.06 0.12 l0.06 0.12 z M27.66 9.54 c0.06 0 0.18 -0.06 0.18 -0.12 s0 -0.12 -0.12 -0.12 c-0.06 0 -0.12 0.06 -0.18 0.12 l0.06 0.12 l0.06 0 z M26.58 9.600000000000001 l0.12 -0.06 c0.06 -0.06 0.12 -0.12 0.12 -0.18 s-0.06 -0.06 -0.06 -0.06 c-0.06 0 -0.12 0.06 -0.18 0.12 l-0.06 0.12 z M28.32 9.54 l0 -0.12 l-0.06 -0.12 l-0.06 0 l0 0.12 z M20.88 9.780000000000001 l-0.06 -0.06 l-0.12 -0.06 s-0.06 0 -0.06 0.06 l0 0.06 l0.24 0 z M36.96 9.240000000000002 c0.12 0 0.18 -0.06 0.18 -0.06 c-0.06 -0.06 -0.12 -0.06 -0.18 -0.06 l-0.18 0.06 c0 0.06 0.06 0.06 0.18 0.06 z M37.56 9.54 c0.06 0 0.12 -0.06 0.12 -0.18 c-0.06 -0.06 -0.12 -0.12 -0.24 -0.12 c-0.06 0 -0.06 0 -0.06 0.06 l0 0.06 c0 0.12 0.12 0.18 0.18 0.18 z M25.86 10.079999999999998 l0.12 -0.18 c0 -0.06 -0.06 -0.12 -0.12 -0.12 c-0.12 0 -0.12 0.06 -0.12 0.12 c0 0.12 0.06 0.18 0.12 0.18 z M23.34 10.14 l0.12 -0.06 l-0.18 -0.06 s-0.06 0 -0.06 0.06 l0 0.06 l0.12 0 z M35.1 9.899999999999999 l0.24 -0.06 l-0.42 -0.18 l-0.06 0.12 c0 0.06 0.12 0.12 0.24 0.12 z M24.54 10.259999999999998 c0.12 0 0.18 -0.06 0.18 -0.06 l0 -0.06 l-0.18 -0.12 c-0.06 0 -0.12 0 -0.12 0.06 l-0.18 0.12 c0 0.06 0.12 0.06 0.3 0.06 z M31.32 10.259999999999998 l0.18 -0.12 c0 -0.06 -0.06 -0.12 -0.18 -0.18 l-0.24 -0.12 c-0.12 0 -0.12 0 -0.18 0.06 l0 0.06 c0 0.12 0.18 0.3 0.42 0.3 z M20.46 10.380000000000003 l0.12 -0.06 l-0.12 -0.06 l-0.12 0.06 c0 0.06 0.06 0.06 0.12 0.06 z M1.5 11.219999999999999 l0.12 -0.06 l-0.06 -0.06 l-0.12 -0.06 l-0.06 0.12 z M28.26 10.259999999999998 l0 -0.06 l-0.12 -0.06 l-0.12 0.06 c0 0.06 0.06 0.06 0.12 0.06 l0.12 0 z M33.36 10.380000000000003 c-0.06 0 -0.06 -0.06 -0.06 -0.12 l0.12 -0.18 c0.06 0 0.06 0.06 0.06 0.18 z M20.82 10.799999999999997 l0.06 -0.12 l-0.12 -0.12 c-0.06 0 -0.06 0.06 -0.06 0.12 c0.06 0.12 0.12 0.12 0.12 0.12 z M18.36 11.04 c0.06 0 0.18 -0.06 0.18 -0.12 s-0.06 -0.18 -0.24 -0.18 c0 -0.06 -0.06 -0.06 -0.06 -0.06 c-0.12 0 -0.12 0.06 -0.12 0.18 c0.06 0.12 0.18 0.18 0.24 0.18 z M20.28 10.979999999999997 c0.06 0 0.12 -0.06 0.12 -0.12 c0 -0.12 0 -0.18 -0.12 -0.18 c-0.06 0 -0.12 0.06 -0.12 0.18 z M17.88 10.920000000000002 l0.12 -0.06 l-0.06 -0.06 l-0.12 0 s-0.06 0 -0.06 0.06 z M19.56 11.159999999999997 c0.12 0 0.18 -0.06 0.18 -0.12 l0 -0.06 c-0.12 -0.06 -0.24 -0.12 -0.36 -0.12 s-0.18 0.06 -0.18 0.18 c0.06 0.06 0.18 0.12 0.36 0.12 z M23.7 10.979999999999997 l0.24 -0.06 l0 -0.06 c0 -0.12 -0.12 -0.12 -0.24 -0.12 s-0.18 0.06 -0.24 0.12 c0 0.06 0.12 0.12 0.24 0.12 z M35.16 10.979999999999997 c-0.24 0 -0.48 -0.06 -0.72 -0.12 l-0.42 -0.12 c-0.12 0 -0.12 0 -0.18 0.12 c0 0.06 -0.06 0.06 -0.12 0.06 l-0.12 -0.06 l-0.12 -0.12 l0.06 0 l0.18 -0.06 c0.12 -0.12 0.66 -0.3 0.9 -0.3 c0.06 0 0.12 0 0.12 0.06 c0.06 0.06 0.36 0.06 0.72 0.06 l0.6 -0.06 c0.42 0 0.78 0.12 0.84 0.24 c0 0.12 -0.12 0.18 -0.3 0.18 s-0.6 0 -0.96 0.06 z M17.1 11.520000000000003 l-0.06 -0.18 c0 -0.12 -0.18 -0.24 -0.3 -0.24 s-0.24 0.12 -0.24 0.18 l0.12 0.06 l0.12 0 l0.18 0.06 z M30.18 11.64 l-0.24 0 c-0.18 0 -0.24 -0.06 -0.3 -0.24 l0 -0.12 c0 -0.06 0 -0.12 0.06 -0.12 l0.12 0 c0.24 0 0.6 -0.24 0.66 -0.42 c0.06 0 0.06 -0.06 0.18 -0.06 c0.18 0 0.54 0.12 0.54 0.24 c0 0.06 0.18 0.12 0.42 0.12 s0.36 0 0.36 0.06 l-0.12 0.12 c0 0.06 0.06 0.06 0.24 0.12 l0.12 0.06 l-0.6 0 l-0.54 0.06 l-0.12 -0.06 l0.48 -0.18 l-0.24 0 c-0.24 0 -0.48 0.06 -0.54 0.18 s-0.3 0.24 -0.48 0.24 z M21.66 11.399999999999999 c0.06 0 0.12 -0.06 0.12 -0.18 l-0.12 -0.12 c-0.06 0 -0.12 0.06 -0.12 0.12 l0 0.06 c0 0.06 0.06 0.12 0.12 0.12 z M-3.3 12.119999999999997 l0.06 -0.06 l0 -0.06 l-0.12 -0.06 c-0.06 0 -0.06 0.06 -0.06 0.06 l0 0.06 z M13.74 12 l0.18 -0.36 l-0.06 -0.18 l-0.3 0 c-0.06 0.06 -0.12 0.06 -0.12 0.12 l0.12 0.3 c0.06 0.06 0.12 0.12 0.18 0.12 z M14.82 11.82 c0.12 0 0.18 -0.06 0.18 -0.18 l0 -0.06 c0 -0.06 -0.18 -0.12 -0.36 -0.12 c-0.24 0 -0.3 0 -0.3 0.06 l0.12 0.18 z M17.76 11.64 l0 -0.12 c0 -0.06 -0.12 -0.12 -0.18 -0.12 l-0.12 0.06 l0.06 0.06 z M15.18 12.060000000000002 c0.06 0 0.12 -0.12 0.18 -0.3 l0.12 -0.18 c-0.06 0 -0.06 0.06 -0.18 0.12 l-0.18 0.3 c0 0.06 0 0.06 0.06 0.06 z M20.04 11.700000000000003 c0.12 0 0.24 -0.06 0.36 -0.12 l0.06 -0.12 c0 -0.06 -0.06 -0.06 -0.18 -0.06 c-0.18 0.06 -0.36 0.12 -0.42 0.18 l0 0.06 c0 0.06 0.06 0.06 0.18 0.06 z M28.32 11.280000000000001 c0.12 0 0.18 -0.06 0.18 -0.06 c-0.06 -0.06 -0.18 -0.06 -0.24 -0.06 s-0.12 0 -0.12 0.06 l-0.06 0.06 l0.24 0 z M12.84 12 c0.24 -0.06 0.36 -0.12 0.36 -0.18 s-0.06 -0.06 -0.12 -0.06 l-0.24 0 c-0.18 0.06 -0.3 0.12 -0.3 0.18 c0 0 0.12 0.06 0.3 0.06 z M11.46 12.299999999999997 l0.06 -0.06 l0 -0.06 c0 -0.12 -0.06 -0.18 -0.06 -0.18 c-0.06 0 -0.12 0.12 -0.12 0.18 l0 0.06 z M16.44 12.299999999999997 c0.06 0 0.12 -0.06 0.12 -0.18 c0 -0.06 0 -0.12 -0.12 -0.12 c-0.06 0 -0.12 0.06 -0.12 0.12 z M12.18 12.780000000000001 c0.24 0 0.6 -0.18 0.6 -0.36 c0 -0.12 -0.18 -0.12 -0.36 -0.12 l-0.18 0.06 l0.06 0.12 c0 0.06 -0.06 0.12 -0.12 0.12 l-0.12 0.06 l0 0.06 z M17.04 12.240000000000002 l0 -0.06 l-0.12 -0.06 c-0.06 0 -0.06 0 -0.06 0.06 l0 0.06 l0.18 0 z M25.92 12.060000000000002 l-0.3 0 l0.06 -0.06 l0.54 0 c0 0.06 -0.12 0.06 -0.3 0.06 z M19.68 12.54 l-0.06 0 l-0.18 -0.06 l-0.06 -0.12 l0.06 -0.12 l0.12 0 l0.12 0.06 l0.06 0.12 z M15.12 12.600000000000001 c0.18 0 0.3 -0.06 0.3 -0.12 l-0.12 -0.06 l-0.24 0 c-0.18 0.06 -0.36 0.12 -0.36 0.18 l0.42 0 z M24.96 12.240000000000002 l-0.72 0 l0.06 -0.06 l0.6 0 c0.06 0 0.06 0 0.06 0.06 z M17.4 12.96 l-0.36 0 l0.06 -0.06 c0.06 -0.06 0.12 -0.06 0.18 -0.06 l0.12 0.06 l0 0.06 z M15.24 13.259999999999998 c0.18 0 0.48 -0.12 0.48 -0.24 l-0.06 -0.06 c-0.06 -0.06 -0.12 -0.06 -0.18 -0.06 l-0.3 0.06 c-0.18 0.06 -0.24 0.12 -0.24 0.18 z M3.06 14.159999999999997 l1.5 -0.24 c0.48 -0.06 0.78 -0.12 0.78 -0.24 c0 -0.06 -0.12 -0.12 -0.24 -0.18 l-0.24 -0.12 c-0.06 0 -0.12 0 -0.18 0.06 c-0.12 0.18 -0.3 0.18 -1.38 0.36 c-0.36 0.06 -0.54 0.18 -0.54 0.24 s0.12 0.12 0.3 0.12 z M5.64 13.68 l0.12 -0.18 c0 -0.06 0 -0.12 -0.06 -0.12 l-0.12 0.18 c0 0.06 0 0.12 0.06 0.12 z M14.82 13.68 c0.12 -0.06 0.18 -0.06 0.18 -0.12 s-0.12 -0.12 -0.18 -0.12 s-0.18 0 -0.18 0.06 l0 0.06 c0 0.06 0.06 0.12 0.18 0.12 z M13.68 14.100000000000001 l-0.24 0 l0 -0.06 c0 -0.06 0.06 -0.06 0.06 -0.06 c0.06 0 0.12 0 0.12 0.06 z M14.4 14.219999999999999 l-0.18 0 l0.06 -0.06 l0.12 -0.06 c0.06 0 0.12 0 0.18 0.06 c0 0.06 -0.06 0.06 -0.18 0.06 z M1.38 14.700000000000003 l0.18 -0.06 l-0.06 -0.06 l-0.36 0 l0 0.06 s0.06 0.06 0.24 0.06 z M0.42 15.060000000000002 l0.12 -0.06 l0.06 -0.12 c0 -0.06 -0.06 -0.12 -0.12 -0.18 l-0.12 -0.06 l-0.06 0 c-0.06 0 -0.12 0.06 -0.12 0.12 l0.06 0.18 c0.06 0.12 0.12 0.12 0.18 0.12 z M-0.3 15.060000000000002 c0.06 0 0.18 -0.06 0.18 -0.18 l0 -0.06 c0 -0.06 0 -0.06 -0.06 -0.06 c-0.12 0 -0.18 0.06 -0.24 0.12 c0 0.12 0.06 0.18 0.12 0.18 z M-2.1 15.240000000000002 l0.12 -0.06 l-0.18 -0.06 s-0.06 0 -0.06 0.06 l0 0.06 l0.12 0 z M5.52 16.020000000000003 c0.06 0 0.12 -0.06 0.12 -0.12 l-0.12 -0.24 c0 -0.06 0 -0.06 0.06 -0.06 l0.06 -0.12 l0 -0.06 c0 -0.06 -0.3 -0.12 -0.54 -0.12 c-0.3 0 -0.42 0 -0.42 0.06 l0.24 0.12 c0.18 0.06 0.36 0.18 0.42 0.3 c0 0.12 0.12 0.24 0.18 0.24 z M4.2 15.780000000000001 c0.06 0 0.12 -0.06 0.12 -0.18 l0 -0.12 c-0.06 0 -0.12 0.06 -0.12 0.12 l-0.06 0.12 z M0.42 16.619999999999997 c0.06 0 0.12 -0.06 0.12 -0.12 l0 -0.06 l-0.24 -0.12 c-0.06 0 -0.12 0.06 -0.12 0.18 c0 0.06 0.06 0.12 0.24 0.12 z M1.26 16.619999999999997 l0.12 -0.18 c0 -0.06 -0.06 -0.12 -0.12 -0.12 s-0.12 0.06 -0.12 0.12 z M4.44 16.5 l-0.12 -0.06 c0 -0.06 0.12 -0.12 0.3 -0.18 l0.12 0 c0.06 0 0.06 0.06 0.06 0.06 c0 0.06 -0.18 0.18 -0.36 0.18 z M3.54 16.68 l-0.12 -0.06 l0.06 -0.12 l0.12 0.06 l0.06 0.06 z M-2.22 17.22 l0.24 -0.06 c0.12 0 0.24 -0.06 0.24 -0.12 c0 0 -0.12 -0.06 -0.3 -0.06 c-0.12 0 -0.24 0.06 -0.24 0.12 z M-1.32 17.1 l-0.06 -0.06 c0 -0.06 -0.06 -0.06 -0.06 -0.06 l-0.12 0.06 c0 0.06 0.06 0.06 0.12 0.06 l0.12 0 z M12.6 17.04 l-0.12 0 c-0.06 0 -0.12 -0.06 -0.18 -0.12 l-0.06 -0.06 c0 -0.06 0.06 -0.06 0.12 -0.06 c0.12 0 0.3 0.06 0.36 0.12 l0 0.06 z M11.7 17.1 c-0.12 0 -0.18 -0.06 -0.18 -0.12 l0.24 0 l0 0.06 z M-0.6 17.520000000000003 l0.12 -0.06 l-0.12 -0.06 l-0.12 0.06 c0 0.06 0.06 0.06 0.12 0.06 z M10.38 17.28 c0 -0.06 0 -0.18 -0.06 -0.24 l-0.06 0 l-0.06 0.06 l0.06 0.06 c0 0.12 0.06 0.12 0.12 0.12 z M-1.86 18 c-0.06 0 -0.12 0 -0.12 -0.06 l0.06 0 c0 -0.06 0.06 -0.06 0.12 -0.06 s0.12 0 0.12 0.06 c0 0 -0.06 0.06 -0.18 0.06 z M-3.96 18.36 c0.12 0 0.12 -0.06 0.12 -0.12 c-0.06 -0.12 -0.24 -0.12 -0.42 -0.12 l-0.18 0 c0 0.06 0.06 0.06 0.12 0.12 z M10.32 18.6 c0 -0.06 0 -0.18 -0.12 -0.3 c0 -0.06 -0.06 -0.06 -0.06 -0.06 l0 0.12 c0.06 0.18 0.12 0.24 0.18 0.24 z M10.08 20.340000000000003 l0.06 -0.06 l-0.06 -0.06 c0 -0.06 -0.06 -0.12 -0.18 -0.12 l-0.06 0.06 z M10.02 21.479999999999997 c0 -0.06 0 -0.12 -0.06 -0.18 l-0.12 0 l0 0.12 l0.12 0.06 l0.06 0 z M9.9 22.259999999999998 l0.12 -0.12 c0 -0.12 0 -0.18 -0.06 -0.18 l-0.12 0.18 c0 0.06 0 0.12 0.06 0.12 z M9.54 25.32 c0.06 0 0.12 0 0.12 -0.06 l-0.06 0 c0 -0.06 -0.06 -0.06 -0.06 -0.06 l-0.12 0.06 c0 0.06 0.06 0.06 0.12 0.06 z M9.42 26.939999999999998 c0.06 0 0.18 -0.06 0.3 -0.18 l0.06 -0.12 l-0.18 0 c-0.12 0 -0.24 0.06 -0.24 0.18 l0 0.06 c0 0.06 0 0.06 0.06 0.06 z M9.36 27.659999999999997 c0.06 0 0.12 -0.06 0.12 -0.12 l-0.12 -0.18 l-0.12 0.18 c0 0.06 0.06 0.12 0.12 0.12 z M9.6 29.1 l-0.06 -0.36 c-0.06 -0.24 -0.12 -0.3 -0.18 -0.3 l-0.12 0.12 l-0.12 0.24 c0 0.06 0.06 0.12 0.12 0.12 l0.12 -0.06 l0.12 0.12 c0 0.06 0.06 0.12 0.12 0.12 z M9.3 29.7 l0.18 -0.24 l0.06 -0.18 s-0.06 0 -0.12 0.12 l-0.18 0.24 c0 0.06 0 0.06 0.06 0.06 z M9.18 31.14 c0 -0.06 0 -0.18 -0.06 -0.24 l-0.06 0 l-0.06 0.06 l0.12 0.18 l0.06 0 z M9.18 32.16 c0 -0.06 0 -0.18 -0.06 -0.24 l-0.06 0 l0 0.12 l0.06 0.12 l0.06 0 z M9 33.78 l0.06 -0.12 l-0.06 -0.12 l-0.06 0 l0 0.12 z M9.24 34.68 l0.06 -0.06 l-0.12 -0.24 c-0.18 -0.12 -0.24 -0.3 -0.24 -0.36 l0.06 0 l-0.06 0 l-0.06 0.12 c0 0.18 0.18 0.54 0.36 0.54 z M8.64 34.8 c0 -0.06 0 -0.18 -0.06 -0.3 l-0.12 -0.06 l0.06 0.18 c0 0.12 0.06 0.18 0.06 0.18 l0.06 0 z M9.06 35.34 l0 -0.06 l-0.06 -0.18 l-0.06 -0.06 l0 0.12 z M7.14 39.78 l0.06 -0.12 c0.06 -0.12 0.06 -0.24 0.06 -0.3 s-0.06 -0.06 -0.06 -0.06 l-0.12 0 c-0.06 0.06 -0.06 0.24 -0.06 0.36 c0.06 0.06 0.06 0.12 0.12 0.12 z M8.82 40.019999999999996 l0.12 -0.42 c-0.06 -0.06 -0.06 -0.12 -0.12 -0.12 s-0.12 0.12 -0.12 0.3 c0.06 0.18 0.06 0.24 0.12 0.24 z M9.12 41.04 l-0.06 -0.24 c-0.06 -0.24 -0.18 -0.3 -0.24 -0.3 l-0.06 0.06 l0.06 0.12 c0 0.18 0.24 0.36 0.3 0.36 z M7.32 40.8 l0 -0.06 c0 -0.06 0 -0.12 -0.06 -0.12 c0 -0.06 0 -0.06 -0.06 -0.06 l0.06 0.24 l0.06 0 z M8.76 41.46 l0.12 -0.06 l0.06 -0.18 l-0.06 -0.06 c-0.06 0 -0.12 0.06 -0.12 0.18 l0 0.12 z M8.82 42.239999999999995 c0.06 0 0.12 -0.12 0.12 -0.24 s0 -0.12 -0.06 -0.12 c-0.12 0.06 -0.12 0.12 -0.12 0.24 z M7.08 42.3 c0.06 0 0.12 -0.06 0.12 -0.18 l-0.12 -0.12 l-0.12 0.18 c0 0.06 0.06 0.12 0.12 0.12 z M7.5 42.120000000000005 c0.06 0 0.06 -0.06 0.06 -0.06 l-0.12 -0.06 c-0.06 0 -0.06 0 -0.06 0.06 l0 0.06 l0.12 0 z M8.16 42.54 l0.24 -0.18 c0.12 -0.06 0.18 -0.18 0.18 -0.24 l-0.06 0 c-0.06 0 -0.18 0.06 -0.24 0.18 z M9.06 44.28 c0 0 0.06 -0.06 0.06 -0.18 l0 -0.06 s-0.06 -0.06 -0.18 -0.06 c-0.06 0 -0.12 0 -0.12 0.06 l0.06 0.06 c0.06 0.12 0.12 0.18 0.18 0.18 z M8.88 44.64 l-0.06 -0.24 l-0.06 -0.06 l0.06 0.3 l0.06 0 z M7.44 45.6 l0 -0.06 l-0.18 -0.12 l-0.12 -0.06 l0.06 0.12 c0.06 0.12 0.18 0.12 0.18 0.12 l0.06 0 z M8.88 46.14 l0 -0.06 l-0.06 -0.18 l-0.06 0 l0 0.12 c0 0.12 0.06 0.12 0.12 0.12 z M8.82 47.04 l0.06 -0.24 c0 -0.12 0 -0.18 -0.12 -0.18 c-0.06 0 -0.06 0 -0.06 0.06 l0 0.12 c0.06 0.12 0.06 0.24 0.12 0.24 z M8.94 48.06 c0.06 0 0.12 -0.12 0.12 -0.24 s-0.06 -0.18 -0.12 -0.18 c-0.12 0 -0.12 0.06 -0.12 0.18 z M7.56 48.54 c0.12 0 0.18 -0.06 0.18 -0.18 l0.06 -0.06 l-0.06 0 l-0.12 0.06 c-0.12 0.06 -0.18 0.06 -0.18 0.12 s0.06 0.06 0.12 0.06 z M7.56 49.08 c0 -0.06 0 -0.18 -0.06 -0.3 l-0.12 -0.06 c0 0.06 0 0.12 0.06 0.18 c0 0.12 0.06 0.18 0.06 0.18 l0.06 0 z M9 49.2 c0.06 0 0.12 -0.06 0.12 -0.12 l0 -0.06 c0 -0.06 -0.06 -0.12 -0.12 -0.18 l-0.06 0 c-0.06 0 -0.06 0.06 -0.06 0.18 c0.06 0.12 0.06 0.18 0.12 0.18 z M7.5 52.2 c0.06 0 0.12 -0.12 0.12 -0.18 c-0.06 -0.06 -0.12 -0.12 -0.24 -0.12 c-0.06 0 -0.06 0 -0.06 0.06 l0 0.06 c0 0.12 0.12 0.18 0.18 0.18 z M9.18 53.22 l0.06 -0.12 l-0.12 -0.06 c-0.06 0 -0.06 0 -0.06 0.12 z M9.48 53.22 l0 -0.06 l-0.06 -0.12 l-0.06 0 l0 0.12 z M8.88 53.46 l0.12 -0.06 l-0.06 -0.06 l-0.12 -0.06 l-0.06 0.12 z M9.42 55.68 c0.06 0 0.12 0 0.18 -0.12 l0.06 -0.18 l-0.12 -0.3 c-0.06 -0.06 -0.06 -0.12 -0.12 -0.12 s-0.06 0.06 -0.12 0.24 l0 0.18 c0 0.18 0.06 0.3 0.12 0.3 z M10.92 59.76 c-0.12 0 -0.18 0 -0.18 -0.06 l0.06 0 c0.06 -0.06 0.12 -0.06 0.18 -0.06 l0.12 0.06 s-0.06 0.06 -0.18 0.06 z">
        </path>
    </path>
    </g>
</svg>
