<svg width="38" height="42" fill="none" xmlns="http://www.w3.org/2000/svg"><g transform="matrix(1,0,0,1,10,0)" fill="currentColor">
        <path d="M7 39.8 c-0.04 0 -0.04 -0.04 -0.08 -0.08 c-0.04 -0.08 -0.16 -0.12 -0.32 -0.12 c-0.28 0 -1.56 -0.64 -1.6 -0.8 c0 -0.08 -0.16 -0.2 -0.36 -0.32 c-0.8 -0.56 -1.56 -1.92 -1.56 -2.72 l0 -0.04 c0 -0.2 -0.04 -0.48 -0.12 -0.6 l-0.04 -0.32 l0.04 -0.28 l-0.08 -0.4 c-0.04 -0.16 -0.08 -0.4 -0.08 -0.56 l0.04 -0.48 l-0.04 -0.28 c-0.04 -0.16 -0.04 -0.52 -0.08 -0.76 c0 -0.2 -0.04 -0.44 -0.08 -0.48 l0 -0.16 l0.04 -0.12 c0 -0.04 -0.04 -0.08 -0.12 -0.16 c-0.04 -0.08 -0.08 -0.08 -0.08 -0.12 l0.08 -0.04 c0.08 0 0.12 -0.12 0.12 -0.24 s-0.04 -0.32 -0.12 -0.44 c-0.04 -0.04 -0.04 -0.12 -0.04 -0.16 c0 -0.08 0 -0.12 0.04 -0.16 l0.04 -0.24 l0 -0.12 c-0.04 -0.2 -0.08 -0.48 -0.08 -0.72 c0 -0.28 0.04 -0.52 0.08 -0.6 c0.04 -0.04 0.08 -0.16 0.08 -0.28 l-0.04 -0.32 c-0.08 -0.56 -0.12 -1.04 -0.12 -1.52 c0 -0.4 0.04 -0.76 0.08 -1.16 l0 -0.4 l0.08 -0.32 l0.12 -0.32 l-0.04 -0.4 l0 -0.16 l0.04 -0.28 l0.08 -0.16 l-0.08 -0.08 c-0.04 -0.04 -0.08 -0.16 -0.08 -0.4 l0.04 -0.76 l-0.04 -0.24 l-0.04 -0.08 l0.08 -0.12 c0.04 -0.04 0.04 -0.2 0.04 -0.32 l0 -0.44 l0.04 -0.52 l0.08 -0.32 l-0.04 -0.28 c0 -0.04 0.04 -0.08 0.08 -0.08 c0.08 0 0.08 0 0.08 -0.04 l-0.04 -0.2 c-0.08 -0.16 -0.12 -0.64 -0.12 -1.08 l0.04 -0.6 c0.08 -0.24 0.2 -1.68 0.2 -1.84 l0 -0.16 c0 -0.28 0.04 -0.52 0.12 -0.6 l0.04 -0.08 l-0.04 -0.12 c-0.04 0 -0.04 -0.04 -0.04 -0.08 l0.08 -0.16 c0.16 -0.12 0.28 -0.8 0.28 -1.28 c0 -0.24 -0.04 -0.4 -0.08 -0.52 l0.04 -0.2 l-0.04 -0.24 l-0.04 -0.08 l0.08 -0.2 c0.04 -0.08 0.08 -0.16 0.08 -0.24 l-0.08 -0.28 c0 -0.08 0.04 -0.16 0.08 -0.2 l0.12 -0.16 c0 -0.08 -0.08 -0.08 -0.2 -0.16 c-0.08 -0.04 -0.2 -0.08 -0.36 -0.08 l-0.28 0.04 c-0.08 0 -0.16 -0.04 -0.2 -0.12 s-0.16 -0.12 -0.24 -0.12 s-0.08 0 -0.08 0.04 l0.04 0.16 l0.08 0.12 c0 0.04 -0.04 0.04 -0.08 0.04 l-0.2 0 c-0.04 0 -0.08 0 -0.08 0.04 s-0.04 0.08 -0.16 0.08 l-0.08 0.04 l0.2 0.16 l-0.28 -0.04 c-0.04 0 -0.12 0 -0.12 0.04 l-0.04 0.04 c-0.08 0 -0.12 -0.04 -0.24 -0.12 s-0.16 -0.12 -0.2 -0.12 s-0.04 0.04 -0.04 0.08 c0 0.08 -0.08 0.16 -0.2 0.16 c-0.08 0 -0.2 0.12 -0.28 0.2 c-0.08 0.16 -0.2 0.2 -0.4 0.2 l-0.12 0 c-0.08 0 -0.16 0 -0.16 0.04 s-0.16 0.08 -0.32 0.12 c-0.2 0.04 -0.44 0.12 -0.52 0.16 l-0.12 0.04 c-0.04 0 -0.04 -0.04 -0.04 -0.12 l0 -0.04 c0 -0.04 -0.04 -0.08 -0.08 -0.08 l-0.28 0.04 c-0.2 0.08 -0.44 0.12 -0.52 0.12 c-0.04 0 -0.08 0 -0.08 0.04 l0.16 0.12 l-0.6 0 l0.2 0.08 c0 0.04 -0.12 0.08 -0.44 0.16 c-0.24 0.08 -0.36 0.08 -0.52 0.08 c-0.08 0 -0.16 0 -0.24 -0.04 c-0.12 -0.08 -0.28 -0.08 -0.4 -0.08 c-0.08 0 -0.16 0 -0.16 0.08 s0.12 0.12 0.2 0.16 l-0.2 0 c-0.16 0 -0.28 0 -0.28 0.04 l0.04 0.08 l-0.04 0.04 c-0.12 0 -0.2 -0.12 -0.24 -0.32 c0 -0.04 -0.04 -0.08 -0.12 -0.08 l-0.28 0.08 l-0.08 0.08 l0.08 0.12 l-0.04 0.04 l-0.12 -0.04 c-0.2 -0.08 -0.44 -0.08 -0.64 -0.08 c-0.16 0 -0.32 0 -0.32 0.04 l-0.08 0.04 c-0.16 0 -0.6 -0.2 -0.64 -0.32 c0 -0.04 -0.16 -0.16 -0.32 -0.24 c-0.16 -0.12 -0.28 -0.24 -0.28 -0.32 l0 -0.04 c0 -0.04 -0.08 -0.12 -0.16 -0.2 c-0.32 -0.28 -0.6 -0.76 -0.8 -1.4 c-0.08 -0.28 -0.12 -0.44 -0.12 -0.56 s0.04 -0.2 0.12 -0.28 c0.16 -0.2 0.28 -0.24 1.16 -0.36 l1.04 -0.12 c0 -0.04 0.32 -0.08 0.68 -0.08 c0.36 -0.04 0.6 -0.08 0.6 -0.12 s0.16 -0.08 0.36 -0.12 l0.16 0 c0.08 0 0.16 0 0.16 0.04 s0.04 0.08 0.08 0.08 c0.08 0 0.08 -0.04 0.08 -0.12 c0 -0.04 0.12 -0.04 0.24 -0.04 l0.16 0 l-0.24 -0.12 l0.24 -0.08 l0.48 -0.12 l0.08 0 c0.08 0 0.08 0.04 0.12 0.12 l0.08 0.12 l0.08 -0.12 c0.04 -0.08 0.08 -0.12 0.12 -0.12 l0.08 0 l0.08 -0.04 c0.04 -0.12 0.48 -0.2 0.76 -0.2 c0.12 0 0.2 0 0.24 0.04 l0.12 0.08 c0.08 0 0.16 -0.04 0.28 -0.2 c0.12 -0.12 0.24 -0.2 0.32 -0.2 s0.12 0.04 0.12 0.08 l0.04 0.08 l0.08 -0.04 l0.04 -0.08 l-0.08 -0.12 c0 -0.04 0.04 -0.04 0.12 -0.04 s0.12 0.04 0.12 0.12 l0 0.04 l0.16 0.04 c0.12 0 0.16 -0.08 0.16 -0.16 l0 -0.08 c0 -0.04 0 -0.08 0.04 -0.08 s0.08 0.08 0.08 0.16 s0.04 0.12 0.08 0.12 l0.04 0 c0.08 0 0.16 -0.08 0.16 -0.2 c0 -0.08 0.04 -0.16 0.08 -0.16 s0.12 0.04 0.12 0.16 l0 0.08 l0.08 -0.12 c0.08 -0.12 0.28 -0.24 0.44 -0.28 l0.16 0 c0.08 0 0.16 0 0.16 0.04 s-0.04 0.08 -0.16 0.12 l-0.04 0 s0.08 0.04 0.2 0.04 c0.2 0 0.28 -0.04 0.28 -0.12 l0 -0.08 c0 -0.08 0.08 -0.12 0.32 -0.12 l0.16 0 c0.08 0 0.12 -0.04 0.12 -0.08 l0 -0.04 l0.04 -0.08 l0.08 0.08 l0.16 0.04 c0.04 0 0.08 0 0.08 -0.04 l0.12 -0.08 l0.32 0.16 l-0.08 -0.12 l0.08 -0.12 c0.08 -0.08 0.2 -0.16 0.28 -0.16 c0.04 0 0.08 0.04 0.08 0.08 l0 0.04 c0 0.04 0.08 0.08 0.2 0.08 c0.2 0 0.24 -0.08 0.24 -0.44 s0 -0.48 0.12 -0.48 c0.08 0 0.16 0.04 0.32 0.12 c0.28 0.16 0.76 0.32 0.96 0.32 c0.04 0 0.08 0 0.08 -0.04 s0.2 -0.08 0.4 -0.08 s0.4 -0.04 0.44 -0.12 l0.08 -0.04 l0 0.16 l0.08 -0.04 c0.04 -0.04 0.08 -0.04 0.08 -0.12 l-0.04 -0.08 l0.16 0.04 l0.24 0.04 c0.32 0 0.8 -0.12 0.8 -0.24 l-0.04 -0.08 l0.2 0 c0.08 0 0.08 0 0.08 -0.04 s0.04 -0.04 0.04 -0.04 l0.04 0 c0.12 0.04 0.24 0.08 0.4 0.08 c0.2 0 0.4 -0.04 0.44 -0.12 s0.08 -0.08 0.12 -0.08 s0.08 0 0.12 0.04 c0.08 0.04 0.28 0.08 0.4 0.08 s0.2 0 0.2 -0.04 l0 -0.08 c0 -0.08 0.04 -0.08 0.08 -0.12 l0.08 -0.04 l0.24 0.12 c0.04 0 0.04 0 0.04 -0.04 s0.2 -0.12 0.4 -0.12 c0.24 0 0.44 -0.04 0.48 -0.08 l0.36 -0.12 c0.12 0 0.32 -0.04 0.44 -0.08 c0.16 -0.08 0.48 -0.08 0.72 -0.08 c0.2 0 0.36 0 0.44 0.04 c0.08 0 0.2 -0.04 0.32 -0.12 c0.08 -0.08 0.24 -0.12 0.36 -0.12 l0.2 0.04 c0.24 0 0.56 -0.08 0.56 -0.2 l-0.04 -0.16 l0.16 0.12 c0.08 0.08 0.16 0.12 0.2 0.12 l0.08 -0.08 l0.04 -0.08 c0 -0.04 0 -0.04 -0.08 -0.04 l-0.08 0 l0.04 -0.08 l0.12 -0.08 l0.24 0.12 c0.04 0 0.04 0 0.04 -0.08 l0 -0.04 l0.04 0 l0.32 -0.04 l0.2 -0.04 c0.08 0 0.12 0 0.2 0.08 l0.12 0.12 l-0.12 -0.2 c0 -0.04 0.08 -0.08 0.28 -0.08 l0.6 0.04 c0.6 0 0.88 -0.04 0.88 -0.08 s0.04 -0.08 0.12 -0.08 l0.24 0 c0.08 0 0.12 0 0.12 -0.04 c0.04 -0.04 0.6 -0.08 1.28 -0.12 c0.64 0 1.2 -0.04 1.24 -0.12 c0 -0.04 0.08 -0.08 0.16 -0.08 s0.12 0.04 0.12 0.12 c0 0.04 0.16 0.08 0.32 0.08 c0.36 0 0.8 -0.08 1.08 -0.16 c0.12 -0.04 0.24 -0.04 0.36 -0.04 c0.16 0 0.32 0 0.56 0.08 c0.52 0.12 0.76 0.16 0.88 0.16 l0.04 0 l-0.08 -0.12 l0.08 0 c0.08 0 0.28 0.04 0.52 0.16 l0.32 0.12 c0.04 0 0.04 -0.04 0.04 -0.08 c0.04 -0.12 0.12 -0.16 0.24 -0.16 c0.16 0 0.32 0.04 0.44 0.16 c0.08 0.08 0.24 0.12 0.32 0.12 l0.08 0 c0.2 0 0.88 0.44 0.96 0.68 c0 0.04 0 0.08 -0.04 0.08 l-0.12 0 l0 0.04 c0 0.04 0.16 0.12 0.32 0.2 c0.12 0.04 0.2 0.08 0.2 0.12 l-0.32 0.08 c-0.44 0.08 -0.6 0.16 -0.6 0.28 l0.08 0.28 l-0.04 0.08 l0.04 0 c0.04 0 0.16 0.04 0.2 0.12 l0.16 0.08 l0.08 -0.04 c0.04 0 0 0.04 -0.04 0.08 c-0.04 0.08 -0.04 0.08 -0.08 0.08 l-0.08 -0.04 c-0.08 -0.08 -0.28 -0.12 -0.48 -0.12 c-0.2 -0.04 -0.4 -0.08 -0.4 -0.16 c-0.04 -0.04 -0.08 -0.12 -0.12 -0.12 l-0.08 0.04 l0.04 0.08 c0 0.08 -0.04 0.16 -0.16 0.2 l-0.08 0.04 c0 0.04 0.12 0.04 0.4 0.04 l0.24 0 c0.24 0 0.44 0.04 0.52 0.08 c0.12 0.04 0.32 0.08 0.48 0.08 c0.12 0 0.24 0.08 0.24 0.12 s-0.36 0.12 -0.96 0.12 c-0.48 0 -0.76 0.04 -0.76 0.08 l0.12 0.04 c0 0.04 -0.08 0.08 -0.2 0.12 l-0.2 0.04 c-0.08 0 -0.16 -0.04 -0.2 -0.08 c-0.08 -0.08 -0.24 -0.12 -0.36 -0.12 s-0.2 0.04 -0.2 0.08 s0 0.04 -0.04 0.04 l-0.04 -0.04 c-0.08 -0.08 -0.16 -0.12 -0.2 -0.12 l-0.04 0.04 l0.08 0.12 c0 0.04 -0.16 0.04 -0.72 0.08 l-0.28 0 c-0.2 0 -0.36 -0.04 -0.44 -0.08 c-0.16 -0.08 -0.4 -0.12 -0.68 -0.12 c-0.24 0 -0.44 -0.04 -0.44 -0.08 l-0.04 -0.08 l-0.04 0.08 c-0.04 0.08 -0.08 0.12 -0.12 0.12 c-0.16 0 -0.28 0.04 -0.28 0.04 c0 0.04 0.08 0.08 0.24 0.08 c0.32 0.04 0.48 0.2 0.48 0.32 c0 0.08 -0.04 0.16 -0.16 0.24 l-0.28 0.12 c-0.08 0 -0.12 -0.08 -0.16 -0.16 l0 -0.04 c0 -0.08 0.12 -0.16 0.4 -0.16 c0.08 0 0.12 0 0.12 -0.08 c0 -0.04 -0.12 -0.08 -0.2 -0.08 c-0.12 0 -0.28 0.04 -0.32 0.12 c0 0.04 -0.04 0.04 -0.08 0.04 l-0.16 -0.04 c-0.12 -0.04 -0.32 -0.08 -0.52 -0.08 c-0.36 0 -0.68 0.08 -0.72 0.2 c-0.04 0.04 -0.04 0.08 -0.08 0.08 c0 -0.04 -0.16 -0.08 -0.28 -0.08 s-0.28 0.04 -0.32 0.12 l-0.04 0.12 c0 0.08 0.08 0.12 0.2 0.12 l0.08 0 c0.04 0 0.04 0 0.04 0.04 c-0.04 0.04 -0.36 0.08 -0.76 0.12 l-0.44 0.04 c-0.24 0 -0.28 -0.04 -0.28 -0.16 c0 -0.08 0.04 -0.16 0.12 -0.16 c0.12 0 0.16 0 0.16 -0.04 c-0.04 -0.08 -0.44 -0.12 -0.76 -0.12 c-0.2 0 -0.32 0 -0.36 0.04 s-0.16 0.12 -0.28 0.16 l-0.08 0.04 l0.44 0 c0.12 0 0.16 0 0.16 0.04 l-0.12 0.2 c0 0.04 0.04 0.04 0.08 0.08 l-0.72 0.08 c-0.52 0.04 -0.88 0.08 -0.88 0.16 c0 0.04 -0.04 0.04 -0.08 0.04 l-0.16 -0.04 l-0.12 -0.08 c-0.04 0 -0.04 0 -0.04 0.04 l0 0.04 c0 0.04 0 0.04 -0.04 0.04 l-0.08 0 l-0.04 0.04 c0 0.04 0.08 0.12 0.16 0.12 l0.04 0.04 c0 0.04 0 0.04 -0.08 0.04 s-0.16 -0.08 -0.2 -0.16 s-0.12 -0.12 -0.2 -0.12 s-0.12 0.04 -0.12 0.08 s-0.12 0.08 -0.28 0.08 c-0.2 0 -0.24 0.04 -0.24 0.08 l0 0.16 c0 0.08 0 0.12 -0.04 0.12 s-0.08 -0.04 -0.12 -0.12 l-0.16 -0.04 l-0.72 0.08 c-0.08 0 -0.12 0 -0.12 -0.04 l0.08 -0.08 l-0.04 -0.12 c0 -0.04 0.04 -0.08 0.08 -0.12 l0.16 -0.08 l0 -0.04 c0 -0.04 -0.12 -0.08 -0.24 -0.08 c-0.16 0 -0.32 0.04 -0.44 0.12 c-0.08 0.04 -0.32 0.08 -0.52 0.12 c-0.2 0 -0.44 0.08 -0.52 0.16 l-0.04 0.08 c0 0.04 0 0.04 0.08 0.04 l0.48 -0.04 c0.28 0 0.36 0.04 0.36 0.12 l0 0.04 c0 0.08 0.04 0.12 0.12 0.12 l0.32 -0.04 l0.04 0.04 l0 0.04 l-0.16 0.04 c-0.36 0 -1.08 -0.12 -1.28 -0.24 l-0.52 -0.12 c-0.24 0 -0.52 -0.04 -0.64 -0.08 c-0.12 0 -0.16 0 -0.16 0.04 l0.04 0.12 c0.08 0.12 0.12 0.16 0.2 0.16 l0.2 -0.04 c0.08 0 0.16 0.08 0.16 0.16 l-0.04 0.12 c0 0.04 0 0.04 -0.04 0.04 l-0.04 -0.04 c0 -0.08 -0.08 -0.12 -0.12 -0.12 l-0.04 0.04 l0.08 0.2 c0 0.04 -0.08 0.04 -0.2 0.08 l-0.2 0 l0.2 0.12 l-0.4 0 c-0.36 0 -0.6 -0.08 -0.76 -0.2 l-0.16 -0.12 c-0.04 0 -0.08 0.04 -0.08 0.08 c-0.04 0.08 -0.16 0.16 -0.32 0.2 l-0.16 0.04 c-0.04 0 -0.04 0 -0.04 -0.04 l0.04 -0.12 c0 -0.04 -0.04 -0.08 -0.2 -0.12 l-0.12 0 c-0.04 0 -0.08 0 -0.08 0.04 l0 0.04 c0 0.08 0.08 0.12 0.12 0.12 s0.08 0.04 0.08 0.12 l0 0.04 s0.04 0.04 0.12 0.04 s0.16 0.04 0.16 0.08 l0 0.04 c0 0.04 -0.04 0.08 -0.08 0.08 l-0.04 0.04 l0.08 0.28 c0 0.04 0 0.08 -0.08 0.08 l-0.08 0.04 l0.12 0.2 l-0.12 0 c-0.04 0 -0.08 0 -0.08 0.04 s0.12 0.12 0.24 0.12 c0.12 0.04 0.2 0.12 0.2 0.16 s-0.04 0.08 -0.12 0.08 l-0.2 0.04 c0 0.04 0.04 0.04 0.16 0.08 c0.2 0.04 0.32 0.16 0.32 0.2 s-0.04 0.08 -0.12 0.08 l-0.2 0 c-0.08 0 -0.24 0.04 -0.28 0.08 s-0.08 0.04 -0.2 0.04 l-0.44 -0.04 l-0.52 -0.12 l-0.04 0.04 l-0.04 0.68 l-0.08 0.64 c0 0.4 -0.44 4.8 -0.56 5.56 l-0.2 3 l0 0.2 c0 0.16 0 0.6 -0.04 0.96 l-0.04 1.28 c0 0.52 -0.08 0.68 -0.4 0.8 l-0.08 0.04 c0 0.04 0.04 0.04 0.16 0.04 c0.16 0 0.28 0.04 0.28 0.08 l0 0.52 c0 0.68 0 1.84 -0.04 2.08 c-0.04 0.16 -0.04 0.4 -0.04 0.56 l0.04 1.2 l-0.04 2.24 l0.04 0.92 c0 0.16 0 0.4 0.04 0.52 c0 0.08 0 0.64 0.04 1.16 c0 1.2 0.08 2.4 0.16 2.84 l0.04 0.52 c0 0.12 0.04 0.28 0.08 0.36 c0 0.12 -0.04 0.16 -0.12 0.16 l-0.08 0 c-0.04 0 -0.08 0.04 -0.08 0.08 c0 0.08 0.04 0.16 0.16 0.16 c0.08 0.04 0.16 0.2 0.24 0.44 c0.08 0.2 0.2 0.48 0.28 0.56 c0.12 0.12 0.16 0.16 0.16 0.28 l-0.04 0.2 l-0.04 0.4 l0.08 -0.04 l0.12 0.04 l0.04 0.08 l-0.08 0.04 c-0.08 0 -0.2 0.04 -0.24 0.16 z M22.84 3.799999999999997 l0.08 -0.04 l-0.12 -0.12 l-0.08 0 l0 0.08 c0 0.04 0.08 0.08 0.12 0.08 z M22.84 4.759999999999998 l0.04 -0.04 l-0.08 -0.04 c-0.04 0 -0.04 0 -0.04 0.04 l0 0.04 l0.08 0 z M9.04 5.719999999999999 c0.04 0 0.08 0 0.08 -0.04 l-0.12 -0.08 l-0.08 -0.04 l0 0.08 c0 0.04 0.08 0.08 0.12 0.08 z M22.2 5.280000000000001 l0.08 -0.04 l-0.04 -0.04 l-0.12 0 l0 0.04 z M24.4 5.280000000000001 l0 -0.04 l-0.04 -0.12 l-0.04 0 l0 0.08 l0.04 0.08 l0.04 0 z M22.8 5.359999999999999 l0.08 -0.04 l-0.04 -0.04 l-0.12 0 l0 0.04 z M25.08 5.359999999999999 l0.04 -0.08 l-0.08 -0.08 c-0.04 0 -0.04 0.04 -0.04 0.08 z M26.16 5.399999999999999 l-0.04 -0.04 l-0.44 0 l-0.04 0.04 l0.52 0 z M26.88 5.799999999999997 l-0.12 -0.08 c-0.08 -0.04 -0.12 -0.12 -0.12 -0.2 c0 -0.04 0.04 -0.08 0.08 -0.08 l0.36 -0.08 c0.08 -0.04 0.16 -0.04 0.2 -0.04 l0.08 0.04 l0 0.08 l-0.08 0 c-0.08 0 -0.12 0.08 -0.2 0.16 c-0.08 0.12 -0.12 0.2 -0.2 0.2 z M25.12 6.039999999999999 c0.12 0 0.24 -0.04 0.24 -0.08 s0 -0.04 -0.08 -0.04 l-0.16 0 c-0.08 0 -0.12 -0.04 -0.16 -0.08 c0 -0.12 -0.08 -0.16 -0.12 -0.16 s-0.08 0.04 -0.08 0.08 l0 0.04 l-0.24 0 l0.16 0.12 c0.12 0.08 0.32 0.12 0.44 0.12 z M21.84 5.960000000000001 l0.04 -0.04 c0 -0.04 0 -0.08 -0.04 -0.12 l-0.04 0 l0 0.08 z M21.6 6.159999999999997 l0.04 -0.04 l-0.08 -0.12 c-0.04 -0.12 -0.16 -0.16 -0.36 -0.16 c-0.12 0 -0.2 0.04 -0.2 0.04 l0 0.08 l-0.08 0.08 z M22.28 6.039999999999999 l0.08 -0.08 c0 -0.08 0 -0.12 -0.04 -0.12 l-0.08 0.12 c0 0.04 0 0.08 0.04 0.08 z M23.08 5.920000000000002 l0.04 -0.04 l-0.08 -0.04 c-0.04 0 -0.04 0 -0.04 0.04 l0 0.04 l0.08 0 z M26.16 5.840000000000003 l0.04 -0.08 l-0.08 -0.04 c-0.04 0 -0.04 0.04 -0.04 0.04 l0 0.04 z M20.36 6.32 l0.04 -0.04 l-0.08 -0.2 c0 -0.04 0.04 -0.08 0.16 -0.08 c0.08 0 0.16 0 0.16 -0.04 l-0.12 0 c-0.08 -0.04 -0.12 -0.04 -0.2 -0.04 c-0.08 0.04 -0.16 0.08 -0.16 0.16 l0.04 0.08 c0.04 0.08 0.12 0.16 0.16 0.16 z M19.84 6.399999999999999 c0.08 0 0.2 -0.08 0.2 -0.2 c-0.04 -0.12 -0.08 -0.16 -0.2 -0.16 s-0.24 0.12 -0.24 0.2 c0 0.04 0.04 0.08 0.08 0.12 s0.08 0.04 0.16 0.04 z M19.28 6.359999999999999 l0 -0.16 c-0.04 -0.08 -0.08 -0.12 -0.12 -0.12 l0 0.04 c-0.04 0 -0.04 0.04 -0.04 0.08 l0.04 0.08 z M18.44 6.359999999999999 c0.04 0 0.12 -0.04 0.12 -0.08 s0 -0.08 -0.08 -0.08 c-0.04 0 -0.08 0.04 -0.12 0.08 l0.04 0.08 l0.04 0 z M17.72 6.399999999999999 l0.08 -0.04 c0.04 -0.04 0.08 -0.08 0.08 -0.12 s-0.04 -0.04 -0.04 -0.04 c-0.04 0 -0.08 0.04 -0.12 0.08 l-0.04 0.08 z M18.88 6.359999999999999 l0 -0.08 l-0.04 -0.08 l-0.04 0 l0 0.08 z M13.92 6.520000000000003 l-0.04 -0.04 l-0.08 -0.04 s-0.04 0 -0.04 0.04 l0 0.04 l0.16 0 z M24.64 6.159999999999997 c0.08 0 0.12 -0.04 0.12 -0.04 c-0.04 -0.04 -0.08 -0.04 -0.12 -0.04 l-0.12 0.04 c0 0.04 0.04 0.04 0.12 0.04 z M25.04 6.359999999999999 c0.04 0 0.08 -0.04 0.08 -0.12 c-0.04 -0.04 -0.08 -0.08 -0.16 -0.08 c-0.04 0 -0.04 0 -0.04 0.04 l0 0.04 c0 0.08 0.08 0.12 0.12 0.12 z M17.24 6.719999999999999 l0.08 -0.12 c0 -0.04 -0.04 -0.08 -0.08 -0.08 c-0.08 0 -0.08 0.04 -0.08 0.08 c0 0.08 0.04 0.12 0.08 0.12 z M15.56 6.759999999999998 l0.08 -0.04 l-0.12 -0.04 s-0.04 0 -0.04 0.04 l0 0.04 l0.08 0 z M23.4 6.600000000000001 l0.16 -0.04 l-0.28 -0.12 l-0.04 0.08 c0 0.04 0.08 0.08 0.16 0.08 z M16.36 6.840000000000003 c0.08 0 0.12 -0.04 0.12 -0.04 l0 -0.04 l-0.12 -0.08 c-0.04 0 -0.08 0 -0.08 0.04 l-0.12 0.08 c0 0.04 0.08 0.04 0.2 0.04 z M20.88 6.840000000000003 l0.12 -0.08 c0 -0.04 -0.04 -0.08 -0.12 -0.12 l-0.16 -0.08 c-0.08 0 -0.08 0 -0.12 0.04 l0 0.04 c0 0.08 0.12 0.2 0.28 0.2 z M13.64 6.920000000000002 l0.08 -0.04 l-0.08 -0.04 l-0.08 0.04 c0 0.04 0.04 0.04 0.08 0.04 z M1 7.479999999999997 l0.08 -0.04 l-0.04 -0.04 l-0.08 -0.04 l-0.04 0.08 z M18.84 6.840000000000003 l0 -0.04 l-0.08 -0.04 l-0.08 0.04 c0 0.04 0.04 0.04 0.08 0.04 l0.08 0 z M22.24 6.920000000000002 c-0.04 0 -0.04 -0.04 -0.04 -0.08 l0.08 -0.12 c0.04 0 0.04 0.04 0.04 0.12 z M13.88 7.200000000000003 l0.04 -0.08 l-0.08 -0.08 c-0.04 0 -0.04 0.04 -0.04 0.08 c0.04 0.08 0.08 0.08 0.08 0.08 z M12.24 7.359999999999999 c0.04 0 0.12 -0.04 0.12 -0.08 s-0.04 -0.12 -0.16 -0.12 c0 -0.04 -0.04 -0.04 -0.04 -0.04 c-0.08 0 -0.08 0.04 -0.08 0.12 c0.04 0.08 0.12 0.12 0.16 0.12 z M13.52 7.32 c0.04 0 0.08 -0.04 0.08 -0.08 c0 -0.08 0 -0.12 -0.08 -0.12 c-0.04 0 -0.08 0.04 -0.08 0.12 z M11.92 7.280000000000001 l0.08 -0.04 l-0.04 -0.04 l-0.08 0 s-0.04 0 -0.04 0.04 z M13.04 7.439999999999998 c0.08 0 0.12 -0.04 0.12 -0.08 l0 -0.04 c-0.08 -0.04 -0.16 -0.08 -0.24 -0.08 s-0.12 0.04 -0.12 0.12 c0.04 0.04 0.12 0.08 0.24 0.08 z M15.8 7.32 l0.16 -0.04 l0 -0.04 c0 -0.08 -0.08 -0.08 -0.16 -0.08 s-0.12 0.04 -0.16 0.08 c0 0.04 0.08 0.08 0.16 0.08 z M23.44 7.32 c-0.16 0 -0.32 -0.04 -0.48 -0.08 l-0.28 -0.08 c-0.08 0 -0.08 0 -0.12 0.08 c0 0.04 -0.04 0.04 -0.08 0.04 l-0.08 -0.04 l-0.08 -0.08 l0.04 0 l0.12 -0.04 c0.08 -0.08 0.44 -0.2 0.6 -0.2 c0.04 0 0.08 0 0.08 0.04 c0.04 0.04 0.24 0.04 0.48 0.04 l0.4 -0.04 c0.28 0 0.52 0.08 0.56 0.16 c0 0.08 -0.08 0.12 -0.2 0.12 s-0.4 0 -0.64 0.04 z M11.4 7.68 l-0.04 -0.12 c0 -0.08 -0.12 -0.16 -0.2 -0.16 s-0.16 0.08 -0.16 0.12 l0.08 0.04 l0.08 0 l0.12 0.04 z M20.12 7.759999999999998 l-0.16 0 c-0.12 0 -0.16 -0.04 -0.2 -0.16 l0 -0.08 c0 -0.04 0 -0.08 0.04 -0.08 l0.08 0 c0.16 0 0.4 -0.16 0.44 -0.28 c0.04 0 0.04 -0.04 0.12 -0.04 c0.12 0 0.36 0.08 0.36 0.16 c0 0.04 0.12 0.08 0.28 0.08 s0.24 0 0.24 0.04 l-0.08 0.08 c0 0.04 0.04 0.04 0.16 0.08 l0.08 0.04 l-0.4 0 l-0.36 0.04 l-0.08 -0.04 l0.32 -0.12 l-0.16 0 c-0.16 0 -0.32 0.04 -0.36 0.12 s-0.2 0.16 -0.32 0.16 z M14.44 7.600000000000001 c0.04 0 0.08 -0.04 0.08 -0.12 l-0.08 -0.08 c-0.04 0 -0.08 0.04 -0.08 0.08 l0 0.04 c0 0.04 0.04 0.08 0.08 0.08 z M-2.2 8.079999999999998 l0.04 -0.04 l0 -0.04 l-0.08 -0.04 c-0.04 0 -0.04 0.04 -0.04 0.04 l0 0.04 z M9.16 8 l0.12 -0.24 l-0.04 -0.12 l-0.2 0 c-0.04 0.04 -0.08 0.04 -0.08 0.08 l0.08 0.2 c0.04 0.04 0.08 0.08 0.12 0.08 z M9.88 7.880000000000003 c0.08 0 0.12 -0.04 0.12 -0.12 l0 -0.04 c0 -0.04 -0.12 -0.08 -0.24 -0.08 c-0.16 0 -0.2 0 -0.2 0.04 l0.08 0.12 z M11.84 7.759999999999998 l0 -0.08 c0 -0.04 -0.08 -0.08 -0.12 -0.08 l-0.08 0.04 l0.04 0.04 z M10.12 8.04 c0.04 0 0.08 -0.08 0.12 -0.2 l0.08 -0.12 c-0.04 0 -0.04 0.04 -0.12 0.08 l-0.12 0.2 c0 0.04 0 0.04 0.04 0.04 z M13.36 7.799999999999997 c0.08 0 0.16 -0.04 0.24 -0.08 l0.04 -0.08 c0 -0.04 -0.04 -0.04 -0.12 -0.04 c-0.12 0.04 -0.24 0.08 -0.28 0.12 l0 0.04 c0 0.04 0.04 0.04 0.12 0.04 z M18.88 7.520000000000003 c0.08 0 0.12 -0.04 0.12 -0.04 c-0.04 -0.04 -0.12 -0.04 -0.16 -0.04 s-0.08 0 -0.08 0.04 l-0.04 0.04 l0.16 0 z M8.56 8 c0.16 -0.04 0.24 -0.08 0.24 -0.12 s-0.04 -0.04 -0.08 -0.04 l-0.16 0 c-0.12 0.04 -0.2 0.08 -0.2 0.12 c0 0 0.08 0.04 0.2 0.04 z M7.64 8.2 l0.04 -0.04 l0 -0.04 c0 -0.08 -0.04 -0.12 -0.04 -0.12 c-0.04 0 -0.08 0.08 -0.08 0.12 l0 0.04 z M10.96 8.2 c0.04 0 0.08 -0.04 0.08 -0.12 c0 -0.04 0 -0.08 -0.08 -0.08 c-0.04 0 -0.08 0.04 -0.08 0.08 z M8.12 8.52 c0.16 0 0.4 -0.12 0.4 -0.24 c0 -0.08 -0.12 -0.08 -0.24 -0.08 l-0.12 0.04 l0.04 0.08 c0 0.04 -0.04 0.08 -0.08 0.08 l-0.08 0.04 l0 0.04 z M11.36 8.16 l0 -0.04 l-0.08 -0.04 c-0.04 0 -0.04 0 -0.04 0.04 l0 0.04 l0.12 0 z M17.28 8.04 l-0.2 0 l0.04 -0.04 l0.36 0 c0 0.04 -0.08 0.04 -0.2 0.04 z M13.12 8.36 l-0.04 0 l-0.12 -0.04 l-0.04 -0.08 l0.04 -0.08 l0.08 0 l0.08 0.04 l0.04 0.08 z M10.08 8.399999999999999 c0.12 0 0.2 -0.04 0.2 -0.08 l-0.08 -0.04 l-0.16 0 c-0.12 0.04 -0.24 0.08 -0.24 0.12 l0.28 0 z M16.64 8.16 l-0.48 0 l0.04 -0.04 l0.4 0 c0.04 0 0.04 0 0.04 0.04 z M11.6 8.64 l-0.24 0 l0.04 -0.04 c0.04 -0.04 0.08 -0.04 0.12 -0.04 l0.08 0.04 l0 0.04 z M10.16 8.84 c0.12 0 0.32 -0.08 0.32 -0.16 l-0.04 -0.04 c-0.04 -0.04 -0.08 -0.04 -0.12 -0.04 l-0.2 0.04 c-0.12 0.04 -0.16 0.08 -0.16 0.12 z M2.04 9.440000000000001 l1 -0.16 c0.32 -0.04 0.52 -0.08 0.52 -0.16 c0 -0.04 -0.08 -0.08 -0.16 -0.12 l-0.16 -0.08 c-0.04 0 -0.08 0 -0.12 0.04 c-0.08 0.12 -0.2 0.12 -0.92 0.24 c-0.24 0.04 -0.36 0.12 -0.36 0.16 s0.08 0.08 0.2 0.08 z M3.76 9.120000000000001 l0.08 -0.12 c0 -0.04 0 -0.08 -0.04 -0.08 l-0.08 0.12 c0 0.04 0 0.08 0.04 0.08 z M9.88 9.120000000000001 c0.08 -0.04 0.12 -0.04 0.12 -0.08 s-0.08 -0.08 -0.12 -0.08 s-0.12 0 -0.12 0.04 l0 0.04 c0 0.04 0.04 0.08 0.12 0.08 z M9.12 9.399999999999999 l-0.16 0 l0 -0.04 c0 -0.04 0.04 -0.04 0.04 -0.04 c0.04 0 0.08 0 0.08 0.04 z M9.6 9.48 l-0.12 0 l0.04 -0.04 l0.08 -0.04 c0.04 0 0.08 0 0.12 0.04 c0 0.04 -0.04 0.04 -0.12 0.04 z M0.92 9.8 l0.12 -0.04 l-0.04 -0.04 l-0.24 0 l0 0.04 s0.04 0.04 0.16 0.04 z M0.28 10.04 l0.08 -0.04 l0.04 -0.08 c0 -0.04 -0.04 -0.08 -0.08 -0.12 l-0.08 -0.04 l-0.04 0 c-0.04 0 -0.08 0.04 -0.08 0.08 l0.04 0.12 c0.04 0.08 0.08 0.08 0.12 0.08 z M-0.2 10.04 c0.04 0 0.12 -0.04 0.12 -0.12 l0 -0.04 c0 -0.04 0 -0.04 -0.04 -0.04 c-0.08 0 -0.12 0.04 -0.16 0.08 c0 0.08 0.04 0.12 0.08 0.12 z M-1.4 10.16 l0.08 -0.04 l-0.12 -0.04 s-0.04 0 -0.04 0.04 l0 0.04 l0.08 0 z M3.68 10.68 c0.04 0 0.08 -0.04 0.08 -0.08 l-0.08 -0.16 c0 -0.04 0 -0.04 0.04 -0.04 l0.04 -0.08 l0 -0.04 c0 -0.04 -0.2 -0.08 -0.36 -0.08 c-0.2 0 -0.28 0 -0.28 0.04 l0.16 0.08 c0.12 0.04 0.24 0.12 0.28 0.2 c0 0.08 0.08 0.16 0.12 0.16 z M2.8 10.52 c0.04 0 0.08 -0.04 0.08 -0.12 l0 -0.08 c-0.04 0 -0.08 0.04 -0.08 0.08 l-0.04 0.08 z M0.28 11.079999999999998 c0.04 0 0.08 -0.04 0.08 -0.08 l0 -0.04 l-0.16 -0.08 c-0.04 0 -0.08 0.04 -0.08 0.12 c0 0.04 0.04 0.08 0.16 0.08 z M0.84 11.079999999999998 l0.08 -0.12 c0 -0.04 -0.04 -0.08 -0.08 -0.08 s-0.08 0.04 -0.08 0.08 z M2.96 11 l-0.08 -0.04 c0 -0.04 0.08 -0.08 0.2 -0.12 l0.08 0 c0.04 0 0.04 0.04 0.04 0.04 c0 0.04 -0.12 0.12 -0.24 0.12 z M2.36 11.120000000000001 l-0.08 -0.04 l0.04 -0.08 l0.08 0.04 l0.04 0.04 z M-1.48 11.48 l0.16 -0.04 c0.08 0 0.16 -0.04 0.16 -0.08 c0 0 -0.08 -0.04 -0.2 -0.04 c-0.08 0 -0.16 0.04 -0.16 0.08 z M-0.88 11.399999999999999 l-0.04 -0.04 c0 -0.04 -0.04 -0.04 -0.04 -0.04 l-0.08 0.04 c0 0.04 0.04 0.04 0.08 0.04 l0.08 0 z M8.4 11.36 l-0.08 0 c-0.04 0 -0.08 -0.04 -0.12 -0.08 l-0.04 -0.04 c0 -0.04 0.04 -0.04 0.08 -0.04 c0.08 0 0.2 0.04 0.24 0.08 l0 0.04 z M7.8 11.399999999999999 c-0.08 0 -0.12 -0.04 -0.12 -0.08 l0.16 0 l0 0.04 z M-0.4 11.68 l0.08 -0.04 l-0.08 -0.04 l-0.08 0.04 c0 0.04 0.04 0.04 0.08 0.04 z M6.92 11.52 c0 -0.04 0 -0.12 -0.04 -0.16 l-0.04 0 l-0.04 0.04 l0.04 0.04 c0 0.08 0.04 0.08 0.08 0.08 z M-1.24 12 c-0.04 0 -0.08 0 -0.08 -0.04 l0.04 0 c0 -0.04 0.04 -0.04 0.08 -0.04 s0.08 0 0.08 0.04 c0 0 -0.04 0.04 -0.12 0.04 z M-2.64 12.239999999999998 c0.08 0 0.08 -0.04 0.08 -0.08 c-0.04 -0.08 -0.16 -0.08 -0.28 -0.08 l-0.12 0 c0 0.04 0.04 0.04 0.08 0.08 z M6.88 12.399999999999999 c0 -0.04 0 -0.12 -0.08 -0.2 c0 -0.04 -0.04 -0.04 -0.04 -0.04 l0 0.08 c0.04 0.12 0.08 0.16 0.12 0.16 z M6.72 13.559999999999999 l0.04 -0.04 l-0.04 -0.04 c0 -0.04 -0.04 -0.08 -0.12 -0.08 l-0.04 0.04 z M6.68 14.32 c0 -0.04 0 -0.08 -0.04 -0.12 l-0.08 0 l0 0.08 l0.08 0.04 l0.04 0 z M6.6 14.84 l0.08 -0.08 c0 -0.08 0 -0.12 -0.04 -0.12 l-0.08 0.12 c0 0.04 0 0.08 0.04 0.08 z M6.36 16.88 c0.04 0 0.08 0 0.08 -0.04 l-0.04 0 c0 -0.04 -0.04 -0.04 -0.04 -0.04 l-0.08 0.04 c0 0.04 0.04 0.04 0.08 0.04 z M6.28 17.96 c0.04 0 0.12 -0.04 0.2 -0.12 l0.04 -0.08 l-0.12 0 c-0.08 0 -0.16 0.04 -0.16 0.12 l0 0.04 c0 0.04 0 0.04 0.04 0.04 z M6.24 18.44 c0.04 0 0.08 -0.04 0.08 -0.08 l-0.08 -0.12 l-0.08 0.12 c0 0.04 0.04 0.08 0.08 0.08 z M6.4 19.4 l-0.04 -0.24 c-0.04 -0.16 -0.08 -0.2 -0.12 -0.2 l-0.08 0.08 l-0.08 0.16 c0 0.04 0.04 0.08 0.08 0.08 l0.08 -0.04 l0.08 0.08 c0 0.04 0.04 0.08 0.08 0.08 z M6.2 19.8 l0.12 -0.16 l0.04 -0.12 s-0.04 0 -0.08 0.08 l-0.12 0.16 c0 0.04 0 0.04 0.04 0.04 z M6.12 20.76 c0 -0.04 0 -0.12 -0.04 -0.16 l-0.04 0 l-0.04 0.04 l0.08 0.12 l0.04 0 z M6.12 21.44 c0 -0.04 0 -0.12 -0.04 -0.16 l-0.04 0 l0 0.08 l0.04 0.08 l0.04 0 z M6 22.52 l0.04 -0.08 l-0.04 -0.08 l-0.04 0 l0 0.08 z M6.16 23.12 l0.04 -0.04 l-0.08 -0.16 c-0.12 -0.08 -0.16 -0.2 -0.16 -0.24 l0.04 0 l-0.04 0 l-0.04 0.08 c0 0.12 0.12 0.36 0.24 0.36 z M5.76 23.2 c0 -0.04 0 -0.12 -0.04 -0.2 l-0.08 -0.04 l0.04 0.12 c0 0.08 0.04 0.12 0.04 0.12 l0.04 0 z M6.04 23.56 l0 -0.04 l-0.04 -0.12 l-0.04 -0.04 l0 0.08 z M4.76 26.52 l0.04 -0.08 c0.04 -0.08 0.04 -0.16 0.04 -0.2 s-0.04 -0.04 -0.04 -0.04 l-0.08 0 c-0.04 0.04 -0.04 0.16 -0.04 0.24 c0.04 0.04 0.04 0.08 0.08 0.08 z M5.88 26.68 l0.08 -0.28 c-0.04 -0.04 -0.04 -0.08 -0.08 -0.08 s-0.08 0.08 -0.08 0.2 c0.04 0.12 0.04 0.16 0.08 0.16 z M6.08 27.36 l-0.04 -0.16 c-0.04 -0.16 -0.12 -0.2 -0.16 -0.2 l-0.04 0.04 l0.04 0.08 c0 0.12 0.16 0.24 0.2 0.24 z M4.88 27.2 l0 -0.04 c0 -0.04 0 -0.08 -0.04 -0.08 c0 -0.04 0 -0.04 -0.04 -0.04 l0.04 0.16 l0.04 0 z M5.84 27.64 l0.08 -0.04 l0.04 -0.12 l-0.04 -0.04 c-0.04 0 -0.08 0.04 -0.08 0.12 l0 0.08 z M5.88 28.16 c0.04 0 0.08 -0.08 0.08 -0.16 s0 -0.08 -0.04 -0.08 c-0.08 0.04 -0.08 0.08 -0.08 0.16 z M4.72 28.2 c0.04 0 0.08 -0.04 0.08 -0.12 l-0.08 -0.08 l-0.08 0.12 c0 0.04 0.04 0.08 0.08 0.08 z M5 28.08 c0.04 0 0.04 -0.04 0.04 -0.04 l-0.08 -0.04 c-0.04 0 -0.04 0 -0.04 0.04 l0 0.04 l0.08 0 z M5.44 28.36 l0.16 -0.12 c0.08 -0.04 0.12 -0.12 0.12 -0.16 l-0.04 0 c-0.04 0 -0.12 0.04 -0.16 0.12 z M6.04 29.52 c0 0 0.04 -0.04 0.04 -0.12 l0 -0.04 s-0.04 -0.04 -0.12 -0.04 c-0.04 0 -0.08 0 -0.08 0.04 l0.04 0.04 c0.04 0.08 0.08 0.12 0.12 0.12 z M5.92 29.759999999999998 l-0.04 -0.16 l-0.04 -0.04 l0.04 0.2 l0.04 0 z M4.96 30.4 l0 -0.04 l-0.12 -0.08 l-0.08 -0.04 l0.04 0.08 c0.04 0.08 0.12 0.08 0.12 0.08 l0.04 0 z M5.92 30.759999999999998 l0 -0.04 l-0.04 -0.12 l-0.04 0 l0 0.08 c0 0.08 0.04 0.08 0.08 0.08 z M5.88 31.36 l0.04 -0.16 c0 -0.08 0 -0.12 -0.08 -0.12 c-0.04 0 -0.04 0 -0.04 0.04 l0 0.08 c0.04 0.08 0.04 0.16 0.08 0.16 z M5.96 32.04 c0.04 0 0.08 -0.08 0.08 -0.16 s-0.04 -0.12 -0.08 -0.12 c-0.08 0 -0.08 0.04 -0.08 0.12 z M5.04 32.36 c0.08 0 0.12 -0.04 0.12 -0.12 l0.04 -0.04 l-0.04 0 l-0.08 0.04 c-0.08 0.04 -0.12 0.04 -0.12 0.08 s0.04 0.04 0.08 0.04 z M5.04 32.72 c0 -0.04 0 -0.12 -0.04 -0.2 l-0.08 -0.04 c0 0.04 0 0.08 0.04 0.12 c0 0.08 0.04 0.12 0.04 0.12 l0.04 0 z M6 32.8 c0.04 0 0.08 -0.04 0.08 -0.08 l0 -0.04 c0 -0.04 -0.04 -0.08 -0.08 -0.12 l-0.04 0 c-0.04 0 -0.04 0.04 -0.04 0.12 c0.04 0.08 0.04 0.12 0.08 0.12 z M5 34.8 c0.04 0 0.08 -0.08 0.08 -0.12 c-0.04 -0.04 -0.08 -0.08 -0.16 -0.08 c-0.04 0 -0.04 0 -0.04 0.04 l0 0.04 c0 0.08 0.08 0.12 0.12 0.12 z M6.12 35.480000000000004 l0.04 -0.08 l-0.08 -0.04 c-0.04 0 -0.04 0 -0.04 0.08 z M6.32 35.480000000000004 l0 -0.04 l-0.04 -0.08 l-0.04 0 l0 0.08 z M5.92 35.64 l0.08 -0.04 l-0.04 -0.04 l-0.08 -0.04 l-0.04 0.08 z M6.28 37.12 c0.04 0 0.08 0 0.12 -0.08 l0.04 -0.12 l-0.08 -0.2 c-0.04 -0.04 -0.04 -0.08 -0.08 -0.08 s-0.04 0.04 -0.08 0.16 l0 0.12 c0 0.12 0.04 0.2 0.08 0.2 z M7.28 39.84 c-0.08 0 -0.12 0 -0.12 -0.04 l0.04 0 c0.04 -0.04 0.08 -0.04 0.12 -0.04 l0.08 0.04 s-0.04 0.04 -0.12 0.04 z">
        </path>
    </g>
</svg>
